<svg version="1.1" viewBox="0.0 0.0 64.0 42.23884514435696" fill="none" stroke="none" stroke-linecap="square" stroke-miterlimit="10" xmlns:xlink="http://www.w3.org/1999/xlink" xmlns="http://www.w3.org/2000/svg"><clipPath id="p.0"><path d="m0 0l64.0 0l0 42.238846l-64.0 0l0 -42.238846z" clip-rule="nonzero"/></clipPath><g clip-path="url(#p.0)"><path fill="#000000" fill-opacity="0.0" d="m0 0l64.0 0l0 42.238846l-64.0 0z" fill-rule="evenodd"/><path fill="#d9d9d9" d="m0.5984252 1.8872855l0 0c0 -0.70740247 0.573463 -1.2808656 1.2808654 -1.2808656l60.241417 0c0.33970642 0 0.66550064 0.13494796 0.9057083 0.37515682c0.24021149 0.24020892 0.3751564 0.5660021 0.3751564 0.90570873l0 5.123308c0 0.7074022 -0.5734596 1.2808652 -1.2808647 1.2808652l-60.241417 0c-0.70740247 0 -1.2808654 -0.57346296 -1.2808654 -1.2808652z" fill-rule="evenodd"/><path stroke="#000000" stroke-width="1.0" stroke-linejoin="round" stroke-linecap="butt" d="m0.5984252 1.8872855l0 0c0 -0.70740247 0.573463 -1.2808656 1.2808654 -1.2808656l60.241417 0c0.33970642 0 0.66550064 0.13494796 0.9057083 0.37515682c0.24021149 0.24020892 0.3751564 0.5660021 0.3751564 0.90570873l0 5.123308c0 0.7074022 -0.5734596 1.2808652 -1.2808647 1.2808652l-60.241417 0c-0.70740247 0 -1.2808654 -0.57346296 -1.2808654 -1.2808652z" fill-rule="evenodd"/><path fill="#d9d9d9" d="m0.5931758 24.133818l0 0c0 -0.7074032 0.573463 -1.2808666 1.2808654 -1.2808666l60.241417 0c0.33970642 0 0.66550064 0.13494873 0.9057083 0.3751583c0.24021149 0.24020767 0.3751564 0.5660019 0.3751564 0.9057083l0 5.123308c0 0.7074013 -0.57346344 1.2808647 -1.2808647 1.2808647l-60.241417 0c-0.70740247 0 -1.2808654 -0.57346344 -1.2808654 -1.2808647z" fill-rule="evenodd"/><path stroke="#000000" stroke-width="1.0" stroke-linejoin="round" stroke-linecap="butt" d="m0.5931758 24.133818l0 0c0 -0.7074032 0.573463 -1.2808666 1.2808654 -1.2808666l60.241417 0c0.33970642 0 0.66550064 0.13494873 0.9057083 0.3751583c0.24021149 0.24020767 0.3751564 0.5660019 0.3751564 0.9057083l0 5.123308c0 0.7074013 -0.57346344 1.2808647 -1.2808647 1.2808647l-60.241417 0c-0.70740247 0 -1.2808654 -0.57346344 -1.2808654 -1.2808647z" fill-rule="evenodd"/><path fill="#d9d9d9" d="m0.59862703 35.259666l0 0c0 -0.7074013 0.573463 -1.2808647 1.2808654 -1.2808647l60.241417 0c0.33970642 0 0.66550064 0.13494492 0.9057083 0.3751564c0.24021149 0.24020767 0.3751564 0.5660019 0.3751564 0.9057083l0 5.1233063c0 0.7074051 -0.57346344 1.2808685 -1.2808647 1.2808685l-60.241417 0c-0.70740247 0 -1.2808654 -0.57346344 -1.2808654 -1.2808685z" fill-rule="evenodd"/><path stroke="#000000" stroke-width="1.0" stroke-linejoin="round" stroke-linecap="butt" d="m0.59862703 35.259666l0 0c0 -0.7074013 0.573463 -1.2808647 1.2808654 -1.2808647l60.241417 0c0.33970642 0 0.66550064 0.13494492 0.9057083 0.3751564c0.24021149 0.24020767 0.3751564 0.5660019 0.3751564 0.9057083l0 5.1233063c0 0.7074051 -0.57346344 1.2808685 -1.2808647 1.2808685l-60.241417 0c-0.70740247 0 -1.2808654 -0.57346344 -1.2808654 -1.2808685z" fill-rule="evenodd"/><path fill="#d9d9d9" d="m0.5826772 13.012273l0 0c0 -0.70692635 0.5730776 -1.2800045 1.2800045 -1.2800045l60.24314 0c0.33947754 0 0.6650505 0.13485718 0.90509796 0.37490463c0.24004745 0.24004745 0.37490463 0.5656214 0.37490463 0.90509987l0 5.1198645c0 0.70692825 -0.57307816 1.2800045 -1.2800026 1.2800045l-60.24314 0l0 0c-0.70692694 0 -1.2800045 -0.57307625 -1.2800045 -1.2800045z" fill-rule="evenodd"/><path stroke="#000000" stroke-width="1.0" stroke-linejoin="round" stroke-linecap="butt" d="m0.5826772 13.012273l0 0c0 -0.70692635 0.5730776 -1.2800045 1.2800045 -1.2800045l60.24314 0c0.33947754 0 0.6650505 0.13485718 0.90509796 0.37490463c0.24004745 0.24004745 0.37490463 0.5656214 0.37490463 0.90509987l0 5.1198645c0 0.70692825 -0.57307816 1.2800045 -1.2800026 1.2800045l-60.24314 0l0 0c-0.70692694 0 -1.2800045 -0.57307625 -1.2800045 -1.2800045z" fill-rule="evenodd"/><path fill="#ffff00" d="m42.43043 13.012273l0 0c0 -0.70692635 0.57307816 -1.2800045 1.2800064 -1.2800045l18.416367 0c0.33948135 0 0.6650543 0.13485718 0.9051018 0.37490463c0.24004745 0.24004745 0.37490463 0.5656214 0.37490463 0.90509987l0 5.1198645c0 0.70692825 -0.57307816 1.2800045 -1.2800064 1.2800045l-18.416367 0c-0.70692825 0 -1.2800064 -0.57307625 -1.2800064 -1.2800045z" fill-rule="evenodd"/><path stroke="#000000" stroke-width="1.0" stroke-linejoin="round" stroke-linecap="butt" d="m42.43043 13.012273l0 0c0 -0.70692635 0.57307816 -1.2800045 1.2800064 -1.2800045l18.416367 0c0.33948135 0 0.6650543 0.13485718 0.9051018 0.37490463c0.24004745 0.24004745 0.37490463 0.5656214 0.37490463 0.90509987l0 5.1198645c0 0.70692825 -0.57307816 1.2800045 -1.2800064 1.2800045l-18.416367 0c-0.70692825 0 -1.2800064 -0.57307625 -1.2800064 -1.2800045z" fill-rule="evenodd"/></g></svg>