<svg version="1.1" viewBox="0.0 0.0 64.0 42.23884514435696" fill="none" stroke="none" stroke-linecap="square" stroke-miterlimit="10" xmlns:xlink="http://www.w3.org/1999/xlink" xmlns="http://www.w3.org/2000/svg"><clipPath id="p.0"><path d="m0 0l64.0 0l0 42.238846l-64.0 0l0 -42.238846z" clip-rule="nonzero"/></clipPath><g clip-path="url(#p.0)"><path fill="#000000" fill-opacity="0.0" d="m0 0l64.0 0l0 42.238846l-64.0 0z" fill-rule="evenodd"/><path fill="#d9d9d9" d="m0.59862703 35.259666l0 0c0 -0.7074013 0.573463 -1.2808647 1.2808654 -1.2808647l60.241417 0c0.33970642 0 0.66550064 0.13494492 0.9057083 0.3751564c0.24021149 0.24020767 0.3751564 0.5660019 0.3751564 0.9057083l0 5.1233063c0 0.7074051 -0.57346344 1.2808685 -1.2808647 1.2808685l-60.241417 0c-0.70740247 0 -1.2808654 -0.57346344 -1.2808654 -1.2808685z" fill-rule="evenodd"/><path stroke="#000000" stroke-width="1.0" stroke-linejoin="round" stroke-linecap="butt" d="m0.59862703 35.259666l0 0c0 -0.7074013 0.573463 -1.2808647 1.2808654 -1.2808647l60.241417 0c0.33970642 0 0.66550064 0.13494492 0.9057083 0.3751564c0.24021149 0.24020767 0.3751564 0.5660019 0.3751564 0.9057083l0 5.1233063c0 0.7074051 -0.57346344 1.2808685 -1.2808647 1.2808685l-60.241417 0c-0.70740247 0 -1.2808654 -0.57346344 -1.2808654 -1.2808685z" fill-rule="evenodd"/><path fill="#ffff00" d="m42.425182 35.254604l0 0c0 -0.7074013 0.57346344 -1.2808647 1.2808647 -1.2808647l18.41465 0c0.33970642 0 0.6654968 0.13494492 0.9057083 0.3751564c0.24020767 0.24020767 0.3751564 0.5660019 0.3751564 0.9057083l0 5.1233063c0 0.7074051 -0.57346344 1.2808685 -1.2808647 1.2808685l-18.41465 0c-0.7074013 0 -1.2808647 -0.57346344 -1.2808647 -1.2808685z" fill-rule="evenodd"/><path stroke="#000000" stroke-width="1.0" stroke-linejoin="round" stroke-linecap="butt" d="m42.425182 35.254604l0 0c0 -0.7074013 0.57346344 -1.2808647 1.2808647 -1.2808647l18.41465 0c0.33970642 0 0.6654968 0.13494492 0.9057083 0.3751564c0.24020767 0.24020767 0.3751564 0.5660019 0.3751564 0.9057083l0 5.1233063c0 0.7074051 -0.57346344 1.2808685 -1.2808647 1.2808685l-18.41465 0c-0.7074013 0 -1.2808647 -0.57346344 -1.2808647 -1.2808685z" fill-rule="evenodd"/></g></svg>