<?xml version="1.0" encoding="UTF-8" standalone="no"?>
<!DOCTYPE svg PUBLIC "-//W3C//DTD SVG 1.1//EN" "http://www.w3.org/Graphics/SVG/1.1/DTD/svg11.dtd">
<svg width="100%" height="100%" viewBox="0 0 16 16" version="1.1" xmlns="http://www.w3.org/2000/svg" xmlns:xlink="http://www.w3.org/1999/xlink" xml:space="preserve" xmlns:serif="http://www.serif.com/" style="fill-rule:evenodd;clip-rule:evenodd;stroke-linejoin:round;stroke-miterlimit:2;">
    <g transform="matrix(0.688635,0,0,0.688635,2.49092,2.49092)">
        <path d="M10.207,3.104L10.207,5.883C10.207,6.035 10.207,6.035 10.363,6.035C11.296,6.035 12.229,6.034 13.163,6.035C13.554,6.036 13.828,6.254 13.888,6.621C13.927,6.858 13.848,7.061 13.678,7.231C13.28,7.628 12.883,8.026 12.486,8.423C11.169,9.74 9.851,11.057 8.535,12.375C8.327,12.583 8.087,12.687 7.8,12.586C7.685,12.545 7.573,12.467 7.486,12.38C6.197,11.1 4.913,9.816 3.629,8.532C3.196,8.099 2.762,7.668 2.331,7.233C2.019,6.919 2.029,6.485 2.352,6.196C2.499,6.064 2.679,6.035 2.866,6.035C3.789,6.034 4.712,6.035 5.636,6.035C5.799,6.035 5.8,6.035 5.8,5.871C5.8,4.038 5.801,2.912 5.801,1.079C5.801,0.812 5.86,0.569 6.066,0.379C6.214,0.242 6.387,0.16 6.589,0.159C7.529,0.157 8.469,0.153 9.409,0.16C9.874,0.164 10.206,0.543 10.207,1.051C10.209,1.971 10.207,2.185 10.207,3.104Z" style="fill-rule:nonzero;"/>
    </g>
    <g transform="matrix(0.688635,0,0,0.688635,2.49092,2.49092)">
        <path d="M14.17,15.844L1.83,15.844C1.275,15.844 0.824,15.394 0.824,14.838C0.824,14.282 1.274,13.832 1.83,13.832L14.17,13.832C14.725,13.832 15.176,14.282 15.176,14.838C15.176,15.394 14.726,15.844 14.17,15.844Z" style="fill-rule:nonzero;"/>
    </g>
</svg>
