<?xml version="1.0" encoding="utf-8"?>
<!-- Generator: Adobe Illustrator 26.5.0, SVG Export Plug-In . SVG Version: 6.00 Build 0)  -->
<svg version="1.1" id="Layer_1" xmlns="http://www.w3.org/2000/svg" xmlns:xlink="http://www.w3.org/1999/xlink" x="0px" y="0px"
	 viewBox="0 0 24 24" style="enable-background:new 0 0 24 24;" xml:space="preserve">
<g>
	<path d="M6.195,10.126c0.074,0.05,0.159,0.089,0.222,0.151c0.823,0.819,1.646,1.637,2.462,2.463
		c0.366,0.371,0.446,0.885,0.232,1.336c-0.205,0.431-0.655,0.698-1.134,0.669c-0.298-0.019-0.553-0.136-0.764-0.347
		c-1.574-1.571-3.15-3.139-4.718-4.716C2.029,9.213,2.038,8.497,2.506,8.027c1.558-1.563,3.12-3.123,4.685-4.68
		c0.495-0.493,1.22-0.497,1.69-0.025C9.35,3.793,9.342,4.515,8.85,5.013c-0.805,0.813-1.617,1.62-2.428,2.428
		c-0.063,0.063-0.143,0.11-0.215,0.164C6.219,7.631,6.23,7.658,6.241,7.684c0.091,0,0.183,0,0.274,0
		c3.376,0,5.245-0.006,8.621,0.002c3.082,0.007,5.674,1.994,6.482,4.947c1.073,3.927-1.701,7.961-5.745,8.352
		c-0.236,0.023-0.473,0.039-0.709,0.039c-2.853,0.003-4.198,0.003-7.051,0.001c-0.851-0.001-1.423-0.734-1.191-1.515
		c0.149-0.5,0.596-0.833,1.142-0.837c0.654-0.005,4.885,0.005,7.1-0.004c2.114-0.008,3.854-1.46,4.256-3.533
		c0.495-2.555-1.48-5.059-4.08-5.087c-3.507-0.038-5.506-0.011-9.013-0.011c-0.023,0-0.046,0.007-0.069,0.01
		C6.236,10.075,6.216,10.1,6.195,10.126z"/>
</g>
</svg>
