<?xml version="1.0" encoding="UTF-8"?><svg id="uuid-045fbf4b-3869-400f-ae9a-97536ded0cce" xmlns="http://www.w3.org/2000/svg" width="24" height="24" viewBox="0 0 24 24"><defs><style>.uuid-340b4554-d61f-4bf4-afd3-7208fb337c7a{fill:#fbb03b;}</style></defs><path class="uuid-340b4554-d61f-4bf4-afd3-7208fb337c7a" d="M6.1,10.1c-1.2,0-2.3,0-3.5,0-.3,0-.5-.2-.6-.5,0-.1,0-.2,0-.3.2-.3.3-.6.5-.9,1-1.9,2-3.7,3-5.6,0-.2.2-.3.5-.3.2,0,.4,0,.5.2.2.3.3.5.5.8,1,1.9,2,3.7,3.1,5.6.2.4,0,.7-.3.9,0,0-.2,0-.3,0-1.1,0-2.3,0-3.4,0ZM6.7,6s0,0,0,0c0-.3,0-.7,0-1,0-.1,0-.2-.2-.2-.3,0-.6,0-1,0,0,0-.1,0-.1,0,0,0,0,0,0,.1,0,.7,0,1.3,0,2,0,.1,0,.2.2.2.3,0,.5,0,.8,0,.1,0,.2,0,.2-.2,0-.3,0-.7,0-1ZM6.7,8.4c0-.1,0-.3,0-.4,0-.1,0-.2-.2-.2-.3,0-.5,0-.8,0-.1,0-.2,0-.2.2,0,.3,0,.5,0,.8,0,.1,0,.2.2.2.3,0,.5,0,.8,0,.1,0,.2,0,.2-.2,0-.1,0-.3,0-.4Z"/><path d="M14.2,5.9c-1.6,0-3.1.5-4.4,1.3.3.5.6,1.1.9,1.6.2.4.2.8,0,1.1-.1.4-.4.6-.8.8-.2,0-.3,0-.5,0-.7,0-1.4,0-2.1,0h-.5c-.3.9-.5,1.8-.5,2.8,0,4.3,3.4,7.8,7.8,7.8,4.4,0,7.7-3.5,7.8-7.8,0-4.3-3.4-7.8-7.8-7.8ZM14.2,8.1c1.8,0,3.4,1.5,3.4,3.3,0,1.8-1.5,3.4-3.3,3.4-1.8,0-3.4-1.5-3.4-3.3,0-1.8,1.5-3.4,3.3-3.4ZM19.6,17.6c-.4.6-.9,1.1-1.5,1.5-.7.5-1.5.9-2.3,1.1-.5.1-1.1.2-1.7.2-1.6,0-3-.5-4.2-1.6-.4-.4-.8-.8-1.1-1.2,0,0,0,0,0-.1.1-.7.3-1.5.7-2.1.4-.6.9-1,1.6-1.1,0,0,.1,0,.2,0,.5.5,1,.8,1.6,1,.7.3,1.4.3,2.1.2.9-.2,1.6-.6,2.3-1.2,0,0,.1,0,.2,0,.6.1,1.1.5,1.5,1,.4.7.6,1.4.7,2.2,0,0,0,0,0,.1Z"/></svg>