<?xml version="1.0" encoding="UTF-8"?><svg id="uuid-4628b07c-4649-4673-8136-d63d494979fb" xmlns="http://www.w3.org/2000/svg" width="24" height="24" viewBox="0 0 24 24"><defs><style>.uuid-7aac776d-70f3-4fc6-8c7e-5815bf08b748{fill:#39b54a;}</style></defs><path d="M13.9,5.6c-1.1,0-2.1.2-3.1.6,0,2.5-2,4.5-4.5,4.6-.4.9-.5,1.9-.5,3,0,4.5,3.6,8.1,8.1,8.1,4.6,0,8.1-3.6,8.1-8.1,0-4.5-3.6-8.1-8.1-8.1ZM13.8,7.9c1.9,0,3.6,1.5,3.5,3.4,0,1.9-1.5,3.5-3.4,3.6-1.9,0-3.5-1.5-3.5-3.5,0-1.9,1.6-3.5,3.4-3.5ZM19.5,17.9c-.4.6-.9,1.1-1.5,1.5-.7.5-1.5.9-2.4,1.1-.6.2-1.1.2-1.8.2-1.6,0-3.1-.6-4.4-1.6-.4-.4-.8-.8-1.2-1.3,0,0,0,0,0-.1.1-.8.3-1.5.8-2.2.4-.6.9-1,1.6-1.1,0,0,.1,0,.2,0,.5.5,1,.9,1.7,1.1.7.3,1.5.3,2.2.2.9-.2,1.7-.6,2.4-1.3,0,0,.1,0,.2,0,.7.1,1.2.5,1.6,1.1.4.7.7,1.5.8,2.3,0,0,0,0,0,.1Z"/><path class="uuid-7aac776d-70f3-4fc6-8c7e-5815bf08b748" d="M5.9,2.1c2.2,0,3.9,1.8,3.9,3.9,0,2.2-1.8,3.9-3.9,3.9-2.2,0-3.9-1.7-3.9-3.9,0-2.2,1.7-3.9,3.9-3.9ZM5.5,6.6s0,0,0,0c-.4-.4-.7-.7-1.1-1.1-.2-.2-.4-.2-.5,0-.1.1-.3.3-.4.4-.2.1-.2.4,0,.5.6.6,1.2,1.2,1.8,1.8.2.2.4.2.6,0,.3-.3.6-.6.9-.9.6-.6,1.2-1.2,1.8-1.8.2-.2.2-.4,0-.5-.2-.2-.3-.3-.5-.5,0,0-.3,0-.4,0,0,0,0,0-.1.1-.4.4-.9.9-1.3,1.3-.2.2-.5.5-.7.7Z"/></svg>