<?xml version="1.0" encoding="UTF-8"?><svg id="uuid-93a48fe7-9274-4241-98aa-512544efea72" xmlns="http://www.w3.org/2000/svg" width="24" height="24" viewBox="0 0 24 24"><path d="M22,12c0,5.5-4.4,10-10,10-5.6,0-10-4.5-10-10,0-5.6,4.4-10,10-10,5.6,0,10,4.4,10,10ZM11.9,20.6c.8,0,1.5,0,2.2-.3,1.1-.3,2-.7,2.9-1.4.7-.5,1.4-1.2,1.9-1.9,0,0,0,0,0-.1-.2-1-.4-1.9-1-2.8-.4-.7-1.1-1.2-1.9-1.3-.1,0-.2,0-.3,0-.8.8-1.8,1.3-2.9,1.5-.9.2-1.9,0-2.8-.2-.8-.3-1.5-.7-2-1.3,0,0-.1,0-.2,0-.9.1-1.5.6-2,1.4-.5.8-.8,1.8-.9,2.7,0,0,0,.1,0,.2.4.6.9,1.1,1.4,1.6,1.6,1.3,3.4,2,5.5,2ZM16.3,9.1c0-2.3-2-4.3-4.4-4.2-2.3,0-4.3,2-4.2,4.4,0,2.3,2,4.3,4.4,4.2,2.4,0,4.3-2,4.2-4.4Z"/></svg>