<?xml version="1.0" encoding="UTF-8"?><svg id="uuid-3af3cb89-fe73-49fc-86bf-38635ec1e96a" xmlns="http://www.w3.org/2000/svg" width="24" height="24" viewBox="0 0 24 24"><path d="M12,22c-5.7,0-10-4.5-10-10,0-5.6,4.5-10,10-10,5.6,0,10,4.5,10,10,0,5.6-4.5,10-10,10ZM18.9,17c2.6-3.5,2.1-8.6-1.4-11.6-3.8-3.2-9.1-2.5-12.1,1-3.1,3.6-2.3,8.2-.4,10.6,0,0,0-.1,0-.2.2-.6.3-1.3.7-1.8.5-.8,1.2-1.4,2.1-1.5.3,0,.6,0,.9.2.6.6,1.4.9,2.2,1.1,1,.2,2,0,2.9-.3.5-.2,1-.5,1.4-.9,0,0,.2-.1.2-.1.5,0,.9,0,1.3.3.7.4,1.2,1,1.5,1.7.2.5.4,1.1.5,1.6Z"/><path d="M12,5.6c2.4,0,4.3,1.9,4.3,4.3,0,2.4-1.9,4.3-4.3,4.3-2.4,0-4.3-1.9-4.3-4.3,0-2.4,1.9-4.3,4.3-4.3Z"/></svg>