<?xml version="1.0" encoding="UTF-8"?><svg id="uuid-514373ac-ec17-480e-ad2f-8584d1944d1d" xmlns="http://www.w3.org/2000/svg" width="24" height="24" viewBox="0 0 24 24"><path d="M13.9,5.6c-1.4,0-2.7.3-3.8.9v1.7c0,1.3-1.6,2.3-3.7,2.4-.4,1-.6,2-.6,3.2,0,4.5,3.6,8.2,8.2,8.2s8.1-3.6,8.2-8.2c0-4.6-3.6-8.2-8.2-8.2ZM13.8,7.9c1.9,0,3.6,1.6,3.6,3.5,0,1.9-1.5,3.5-3.5,3.6-1.9,0-3.5-1.6-3.6-3.5,0-1.9,1.6-3.5,3.5-3.6ZM19.5,17.9c-.4.6-1,1.1-1.6,1.6-.7.5-1.5.9-2.4,1.1-.6.2-1.1.2-1.8.2-1.7,0-3.1-.6-4.5-1.6-.5-.4-.8-.8-1.2-1.3,0,0,0,0,0-.1.1-.8.3-1.5.8-2.2.4-.6.9-1,1.6-1.1,0,0,.1,0,.2,0,.5.5,1,.9,1.7,1.1.7.3,1.5.3,2.2.2.9-.2,1.7-.6,2.4-1.2,0,0,.1-.1.2,0,.7.1,1.2.5,1.6,1.1.4.7.7,1.5.8,2.3,0,0,0,0,0,.1Z"/><path d="M2,5l3.5,1.4c.2,0,.3.1.5.1s.4,0,.5-.1l4.1-1.7c.2,0,.2-.2.2-.4s0-.3-.2-.4l-4.1-1.7c-.2,0-.3-.1-.5-.1s-.4,0-.5.1l-4.1,1.7c-.2,0-.2.2-.2.4v5c0,.2.2.4.4.4s.4-.2.4-.4v-4.4ZM2.8,6.2v2c0,.9,1.4,1.6,3.2,1.6s3.2-.7,3.2-1.6v-2l-2.4,1c-.3.1-.5.2-.8.2s-.6,0-.8-.2l-2.4-1h0Z"/></svg>