<?xml version="1.0" encoding="utf-8"?>
<!-- Generator: Adobe Illustrator 27.5.0, SVG Export Plug-In . SVG Version: 6.00 Build 0)  -->
<svg version="1.1" id="Layer_1" xmlns="http://www.w3.org/2000/svg" xmlns:xlink="http://www.w3.org/1999/xlink" x="0px" y="0px"
	 viewBox="0 0 110.222 36.826" style="enable-background:new 0 0 110.222 36.826;" xml:space="preserve">
<style type="text/css">
	.st0{fill:none;stroke:#3F3E3E;stroke-miterlimit:10;}
	.st1{fill:#262626;}
	.st2{fill:#4D4D4E;}
	.st3{fill:#7F7F7F;}
	.st4{fill:#DBD9D9;}
	.st5{fill:none;stroke:#DBD9D9;stroke-width:5.4029;stroke-miterlimit:10;}
	.st6{fill:none;stroke:#7F7F7F;stroke-width:5.4029;stroke-miterlimit:10;}
	.st7{fill:none;stroke:#4D4D4E;stroke-width:5.4029;stroke-miterlimit:10;}
	.st8{fill:none;stroke:#262626;stroke-width:5.4029;stroke-miterlimit:10;}
	.st9{fill:#F2F2F3;}
	.st10{fill:#DAD9D9;}
	.st11{fill:#BFBFBF;}
	.st12{fill:#666766;}
	.st13{fill:#4C4C4D;}
	.st14{fill:#333333;}
</style>
<polyline class="st0" points="5.28,6.001 5.28,30.825 32.207,30.825 "/>
<rect x="8.562" y="8.178" class="st1" width="4.131" height="20.024"/>
<rect x="14.667" y="15.995" class="st2" width="4.131" height="12.206"/>
<rect x="20.771" y="12.263" class="st3" width="4.131" height="15.939"/>
<rect x="26.876" y="9.238" class="st4" width="4.131" height="18.964"/>
<polyline class="st0" points="42.115,6.001 42.115,30.825 69.312,30.825 "/>
<rect x="45.665" y="23.641" class="st1" width="4.131" height="4.561"/>
<rect x="51.77" y="15.995" class="st2" width="4.131" height="12.206"/>
<rect x="57.874" y="7.112" class="st3" width="4.131" height="21.09"/>
<rect x="63.979" y="16.104" class="st4" width="4.131" height="12.098"/>
<polyline class="st0" points="78.814,6.001 78.814,30.825 105.993,30.825 "/>
<rect x="82.009" y="6.706" class="st1" width="4.131" height="21.495"/>
<rect x="88.114" y="11.678" class="st2" width="4.131" height="16.523"/>
<rect x="94.218" y="20.463" class="st3" width="4.131" height="7.739"/>
<rect x="100.323" y="16.104" class="st4" width="4.131" height="12.098"/>
</svg>
