<?xml version="1.0" encoding="utf-8"?>
<!-- Generator: Adobe Illustrator 27.5.0, SVG Export Plug-In . SVG Version: 6.00 Build 0)  -->
<svg version="1.1" id="Layer_1" xmlns="http://www.w3.org/2000/svg" xmlns:xlink="http://www.w3.org/1999/xlink" x="0px" y="0px"
	 viewBox="0 0 110.222 36.826" style="enable-background:new 0 0 110.222 36.826;" xml:space="preserve">
<style type="text/css">
	.st0{fill:none;stroke:#3F3E3E;stroke-miterlimit:10;}
	.st1{fill:#262626;}
	.st2{fill:#4D4D4E;}
	.st3{fill:#7F7F7F;}
	.st4{fill:#DBD9D9;}
	.st5{fill:none;stroke:#DBD9D9;stroke-width:5.4029;stroke-miterlimit:10;}
	.st6{fill:none;stroke:#7F7F7F;stroke-width:5.4029;stroke-miterlimit:10;}
	.st7{fill:none;stroke:#4D4D4E;stroke-width:5.4029;stroke-miterlimit:10;}
	.st8{fill:none;stroke:#262626;stroke-width:5.4029;stroke-miterlimit:10;}
	.st9{fill:#F2F2F3;}
	.st10{fill:#DAD9D9;}
	.st11{fill:#BFBFBF;}
	.st12{fill:#666766;}
	.st13{fill:#4C4C4D;}
	.st14{fill:#333333;}
</style>
<g>
	<circle class="st5" cx="55.078" cy="17.749" r="11.374"/>
	<circle class="st5" cx="18.243" cy="17.749" r="11.374"/>
	<circle class="st5" cx="91.914" cy="17.749" r="11.374"/>
</g>
<g>
	<path class="st6" d="M43.733,18.565c0.169,2.379,1.069,4.556,2.477,6.307"/>
	<path class="st6" d="M11.35,8.7c-2.724,2.078-4.482,5.358-4.482,9.049c0,2.679,0.926,5.142,2.477,7.086"/>
	<path class="st6" d="M84.971,26.76c1.921,1.482,4.328,2.364,6.942,2.364c6.282,0,11.374-5.092,11.374-11.374
		c0-0.211-0.006-0.42-0.017-0.628"/>
</g>
<g>
	<path class="st7" d="M45.646,24.109c2.044,3.026,5.506,5.015,9.432,5.015c4.319,0,8.075-2.407,10.001-5.953"/>
	<path class="st7" d="M8.811,24.109c2.044,3.026,5.506,5.015,9.432,5.015c6.282,0,11.374-5.092,11.374-11.374
		c0-2.734-0.965-5.243-2.572-7.205"/>
	<path class="st7" d="M103.288,17.749c0-4.204-2.281-7.876-5.674-9.845"/>
</g>
<g>
	<path class="st8" d="M64.425,24.233c1.278-1.839,2.028-4.074,2.028-6.484c0-6.282-5.092-11.374-11.374-11.374"/>
	<path class="st8" d="M28.12,12.105c-1.96-3.423-5.65-5.73-9.877-5.73"/>
	<path class="st8" d="M97.831,8.033c-1.724-1.052-3.75-1.659-5.918-1.659"/>
</g>
</svg>
