<?xml version="1.0" encoding="utf-8"?>
<!-- Generator: Adobe Illustrator 27.4.1, SVG Export Plug-In . SVG Version: 6.00 Build 0)  -->
<svg version="1.1" id="Layer_1" xmlns="http://www.w3.org/2000/svg" xmlns:xlink="http://www.w3.org/1999/xlink" x="0px" y="0px"
	 viewBox="0 0 110.222 36.826" style="enable-background:new 0 0 110.222 36.826;" xml:space="preserve">
<style type="text/css">
	.st0{fill:none;stroke:#EAE5E5;stroke-width:5.4029;stroke-miterlimit:10;}
	.st1{fill:none;stroke:#B3AFAF;stroke-width:5.4029;stroke-miterlimit:10;}
	.st2{fill:none;stroke:#605A5B;stroke-width:5.4029;stroke-miterlimit:10;}
	.st3{fill:none;stroke:#181818;stroke-width:5.4029;stroke-miterlimit:10;}
</style>
<g>
	<circle class="st0" cx="54.771" cy="17.749" r="11.374"/>
	<path class="st1" d="M43.425,18.565c0.169,2.379,1.069,4.556,2.477,6.307"/>
	<path class="st2" d="M45.339,24.109c2.044,3.026,5.506,5.015,9.432,5.015c4.319,0,8.075-2.407,10.001-5.953"/>
	<path class="st3" d="M64.118,24.233c1.278-1.839,2.028-4.074,2.028-6.484c0-6.282-5.092-11.374-11.374-11.374"/>
</g>
<g>
	<circle class="st0" cx="17.936" cy="17.749" r="11.374"/>
	<path class="st1" d="M11.043,8.7c-2.724,2.078-4.482,5.358-4.482,9.049c0,2.679,0.926,5.142,2.477,7.086"/>
	<path class="st2" d="M8.504,24.109c2.044,3.026,5.506,5.015,9.432,5.015c6.282,0,11.374-5.092,11.374-11.374
		c0-2.734-0.965-5.243-2.572-7.205"/>
	<path class="st3" d="M27.813,12.105c-1.96-3.423-5.65-5.73-9.877-5.73"/>
</g>
<g>
	<circle class="st0" cx="91.606" cy="17.749" r="11.374"/>
	<path class="st1" d="M84.664,26.76c1.921,1.482,4.328,2.364,6.942,2.364c6.282,0,11.374-5.092,11.374-11.374
		c0-0.211-0.006-0.42-0.017-0.628"/>
	<path class="st2" d="M102.981,17.749c0-4.204-2.281-7.876-5.674-9.845"/>
	<path class="st3" d="M97.524,8.033c-1.724-1.052-3.75-1.659-5.918-1.659"/>
</g>
</svg>
