<?xml version="1.0" encoding="UTF-8"?>
<svg width="525px" height="436px" viewBox="0 0 525 436" version="1.1" xmlns="http://www.w3.org/2000/svg" xmlns:xlink="http://www.w3.org/1999/xlink" style="background: #FFFFFF;">
    <title>export area</title>
    <defs>
        <rect id="path-1" x="207" y="78" width="485" height="395" rx="9"></rect>
        <filter x="-8.5%" y="-7.8%" width="116.9%" height="120.8%" filterUnits="objectBoundingBox" id="filter-2">
            <feMorphology radius="6" operator="dilate" in="SourceAlpha" result="shadowSpreadOuter1"></feMorphology>
            <feOffset dx="0" dy="10" in="shadowSpreadOuter1" result="shadowOffsetOuter1"></feOffset>
            <feGaussianBlur stdDeviation="10" in="shadowOffsetOuter1" result="shadowBlurOuter1"></feGaussianBlur>
            <feComposite in="shadowBlurOuter1" in2="SourceAlpha" operator="out" result="shadowBlurOuter1"></feComposite>
            <feColorMatrix values="0 0 0 0 0   0 0 0 0 0   0 0 0 0 0  0 0 0 0.5 0" type="matrix" in="shadowBlurOuter1"></feColorMatrix>
        </filter>
    </defs>
    <g id="viz-icons-for-EDA" stroke="none" stroke-width="1" fill="none" fill-rule="evenodd">
        <g id="Bar" transform="translate(-190.000000, -54.000000)">
            <text id="title" font-family="Rubik-Regular, Rubik" font-size="60" font-weight="normal" fill="#000000">
                <tspan x="402" y="147">Bar</tspan>
            </text>
            <g id="plot-elements" transform="translate(277.000000, 206.000000)">
                <polygon id="Bar_1_1" fill="#9B242C" points="0 255 0 0 45 0 45 255"></polygon>
                <polygon id="Bar_2_1" fill="#A6CEE3" points="45 255 45 29 90 29 90 255"></polygon>
                <polygon id="Bar_3_1" fill="#508E9D" points="90 255 90 69 135 69 135 255"></polygon>
                <polygon id="Bar_1_2" fill="#9B242C" points="215 255 215 189 260 189 260 255"></polygon>
                <polygon id="Bar_2_2" fill="#A6CEE3" points="260 255 260 142 305 142 305 255"></polygon>
                <polygon id="Bar_3_2" fill="#508E9D" points="305 255 305 0 350 0 350 255"></polygon>
            </g>
            <g id="line" transform="translate(296.000000, 161.000000)">
                <rect id="Rectangle" stroke="#979797" fill="#9B242C" x="0.5" y="0.5" width="44" height="15"></rect>
                <rect id="Rectangle" fill="#A6CEE3" x="49" y="0" width="45" height="16"></rect>
                <rect id="Rectangle" fill="#508E9D" x="100" y="0" width="45" height="16"></rect>
                <rect id="Rectangle" fill="#9B242C" x="151" y="0" width="45" height="16"></rect>
                <rect id="Rectangle" fill="#A6CEE3" x="200" y="0" width="45" height="16"></rect>
                <rect id="Rectangle" fill="#508E9D" x="251" y="0" width="45" height="16"></rect>
            </g>
        </g>
    </g>
</svg>