<?xml version="1.0" encoding="utf-8"?>
<!-- Generator: Adobe Illustrator 25.4.1, SVG Export Plug-In . SVG Version: 6.00 Build 0)  -->
<svg version="1.1" id="Layer_1" xmlns="http://www.w3.org/2000/svg" xmlns:xlink="http://www.w3.org/1999/xlink" x="0px" y="0px"
	 viewBox="0 0 500 500" style="enable-background:new 0 0 500 500;" xml:space="preserve">
<style type="text/css">
	<!-- Site colors -->
    .primary-fill{fill:#85B3C3;}
	.primary-stroke{stroke:#85B3C3;}
	.secondary-fill{fill:#508E9D;}
	.secondary-stroke{stroke:#508E9D;}
	<!-- svg classes -->
	.st0{fill:none;stroke-width:4;stroke-miterlimit:10;}
	.st1{}
	.st2{fill-rule:evenodd;clip-rule:evenodd;stroke:#FFFFFF;stroke-width:4;stroke-miterlimit:10;}
	.st3{fill-rule:evenodd;clip-rule:evenodd;}
	.st4{fill-rule:evenodd;clip-rule:evenodd;fill:none;stroke-width:5.6;stroke-miterlimit:10;}
	.st5{fill-rule:evenodd;clip-rule:evenodd;fill:none;stroke-width:5.6;stroke-miterlimit:10;}
	.secondary-density{fill-rule:evenodd;clip-rule:evenodd;}
	.st7{fill-rule:evenodd;clip-rule:evenodd;fill:#282827;stroke:#FFFFFF;stroke-width:4.0624;stroke-miterlimit:10;}
	.st8{fill:none;stroke:#AFB1B2;stroke-width:0.6;stroke-miterlimit:10;}
	.st9{fill:#AFB1B2;}
	.st10{fill-rule:evenodd;clip-rule:evenodd;stroke:#FFFFFF;stroke-width:4;stroke-miterlimit:10;}
	.st11{fill-rule:evenodd;clip-rule:evenodd;stroke:#FFFFFF;stroke-width:4.0441;stroke-miterlimit:10;}
	.primary-density{fill-rule:evenodd;clip-rule:evenodd;stroke:#FFFFFF;stroke-width:4.3171;stroke-miterlimit:10;}
	.outline{fill:none;stroke:#FFFFFF;stroke-width:4;stroke-miterlimit:10;}
	.st14{fill:none;stroke-width:4.1816;stroke-miterlimit:10;}
	.st15{opacity:0.9;fill-rule:evenodd;clip-rule:evenodd;}
	.st16{opacity:0.05;fill-rule:evenodd;clip-rule:evenodd;}
	.st17{opacity:0.4;fill-rule:evenodd;clip-rule:evenodd;}
	.st18{opacity:0.8;fill-rule:evenodd;clip-rule:evenodd;}
	.st19{opacity:0.6;fill-rule:evenodd;clip-rule:evenodd;}
	.st20{opacity:0.2;fill-rule:evenodd;clip-rule:evenodd;}
	.st21{fill:none;stroke:#FFFFFF;stroke-width:4.1816;stroke-miterlimit:10;}
</style>
<path class="primary-density primary-fill" d="M50,50.848c55.795,0,3.709,341.517,200.737,341.517c102.873,0,152.019-169.374,199.097-169.374l0.409,226.434
	H49.486L50,50.848z"/>
<g>
	<path class="secondary-density secondary-fill" d="M57.718,449.372c190.685-22.865,188.467-260.74,241.099-260.74c69.574,0,101.313,202.286,151.402,248.114
		l0.023,12.678L57.718,449.372C57.718,449.372,48.091,450.527,57.718,449.372z"/>
	<path class="outline" d="M57.718,449.372c190.685-22.865,188.467-260.74,241.099-260.74c69.574,0,101.313,202.286,151.402,248.114
		l0.023,12.678L57.718,449.372C57.718,449.372,48.091,450.527,57.718,449.372z"/>
</g>
</svg>
