<?xml version="1.0" encoding="utf-8"?>
<!-- Generator: Adobe Illustrator 25.4.1, SVG Export Plug-In . SVG Version: 6.00 Build 0)  -->
<svg version="1.1" id="Layer_1" xmlns="http://www.w3.org/2000/svg" xmlns:xlink="http://www.w3.org/1999/xlink" x="0px" y="0px"
	 viewBox="0 0 500 500" style="enable-background:new 0 0 500 500;" xml:space="preserve">
<style type="text/css">
	<!-- Site colors -->
    .primary-fill{fill:#85B3C3;}
	.primary-stroke{stroke:#85B3C3;}
	.secondary-fill{fill:#508E9D;}
	.secondary-stroke{stroke:#508E9D;}
	<!-- svg classes -->
	.st3{fill-rule:evenodd;clip-rule:evenodd;}
	.st15{opacity:0.9;fill-rule:evenodd;clip-rule:evenodd;}
	.st16{opacity:0.05;fill-rule:evenodd;clip-rule:evenodd;}
	.st17{opacity:0.4;fill-rule:evenodd;clip-rule:evenodd;}
	.st18{opacity:0.8;fill-rule:evenodd;clip-rule:evenodd;}
	.st19{opacity:0.6;fill-rule:evenodd;clip-rule:evenodd;}
	.st20{opacity:0.2;fill-rule:evenodd;clip-rule:evenodd;}
</style>
<g class="primary-fill">
	<rect x="50" y="52.301" class="st15" width="74.408" height="74.408"/>
	<rect x="131.398" y="52.301" class="st16" width="74.408" height="74.408"/>
	<rect x="212.796" y="52.301" class="st17" width="74.408" height="74.408"/>
	<rect x="375.592" y="52.301" class="st18" width="74.408" height="74.408"/>
	<rect x="294.194" y="52.301" class="st19" width="74.408" height="74.408"/>
	<rect x="50" y="133.021" class="st19" width="74.408" height="74.408"/>
	<rect x="131.398" y="133.021" class="st17" width="74.408" height="74.408"/>
	<rect x="212.796" y="133.021" class="st18" width="74.408" height="74.408"/>
	<rect x="375.592" y="133.021" class="st16" width="74.408" height="74.408"/>
	<rect x="294.194" y="133.021" class="st20" width="74.408" height="74.408"/>
	<rect x="50" y="213.111" class="st15" width="74.408" height="74.408"/>
	<rect x="131.398" y="213.111" class="st18" width="74.408" height="74.408"/>
	<rect x="212.796" y="213.111" class="st20" width="74.408" height="74.408"/>
	<rect x="375.592" y="213.111" class="st18" width="74.408" height="74.408"/>
	<rect x="294.194" y="213.111" class="st19" width="74.408" height="74.408"/>
	<rect x="50" y="293.201" class="st17" width="74.408" height="74.408"/>
	<rect x="131.398" y="293.201" class="st16" width="74.408" height="74.408"/>
	<rect x="212.796" y="293.201" class="st3" width="74.408" height="74.408"/>
	<rect x="375.592" y="293.201" class="st19" width="74.408" height="74.408"/>
	<rect x="294.194" y="293.201" class="st17" width="74.408" height="74.408"/>
	<rect x="50" y="373.291" class="st17" width="74.408" height="74.408"/>
	<rect x="131.398" y="373.291" class="st3" width="74.408" height="74.408"/>
	<rect x="212.796" y="373.291" class="st19" width="74.408" height="74.408"/>
	<rect x="375.592" y="373.291" class="st20" width="74.408" height="74.408"/>
	<rect x="294.194" y="373.291" class="st18" width="74.408" height="74.408"/>
</g>
</svg>
