<?xml version="1.0" encoding="UTF-8"?>
<svg width="525px" height="436px" viewBox="0 0 525 436" version="1.1" xmlns="http://www.w3.org/2000/svg" xmlns:xlink="http://www.w3.org/1999/xlink" style="background: #FFFFFF;">
    <title>export area</title>
    <defs>
        <rect id="path-1" x="207" y="78" width="485" height="395" rx="9"></rect>
        <filter x="-8.5%" y="-7.8%" width="116.9%" height="120.8%" filterUnits="objectBoundingBox" id="filter-2">
            <feMorphology radius="6" operator="dilate" in="SourceAlpha" result="shadowSpreadOuter1"></feMorphology>
            <feOffset dx="0" dy="10" in="shadowSpreadOuter1" result="shadowOffsetOuter1"></feOffset>
            <feGaussianBlur stdDeviation="10" in="shadowOffsetOuter1" result="shadowBlurOuter1"></feGaussianBlur>
            <feComposite in="shadowBlurOuter1" in2="SourceAlpha" operator="out" result="shadowBlurOuter1"></feComposite>
            <feColorMatrix values="0 0 0 0 0   0 0 0 0 0   0 0 0 0 0  0 0 0 0.5 0" type="matrix" in="shadowBlurOuter1"></feColorMatrix>
        </filter>
    </defs>
    <g id="viz-icons-for-EDA" stroke="none" stroke-width="1" fill="none" fill-rule="evenodd">
        <g id="Line" transform="translate(-190.000000, -54.000000)">
            <g id="plot-elements" transform="translate(207.000000, 78.000000)">
                <g id="Group"></g>
                <path d="M22,338 C22,338 114,86 114,86 C114,86 191,87 191,87 C191,87 284,86 284,86 C284,86 360,86 360,86 C360,86 453,116 453,116" id="Line_1" stroke="#9B242C" stroke-width="6"></path>
                <circle id="Dot_11" fill="#9B242C" cx="22" cy="338" r="15"></circle>
                <circle id="Dot_12" fill="#9B242C" cx="114" cy="86" r="15"></circle>
                <circle id="Dot_13" fill="#9B242C" cx="191" cy="86" r="15"></circle>
                <circle id="Dot_14" fill="#9B242C" cx="284" cy="86" r="15"></circle>
                <circle id="Dot_15" fill="#9B242C" cx="360" cy="86" r="15"></circle>
                <circle id="Dot_16" fill="#9B242C" cx="453" cy="116" r="15"></circle>
                <path d="M22,350 C22,350 114,146 114,146 C114,146 191,161 191,161 C191,161 284,335 284,335 C284,335 360,338.8 360,338.8 C360,338.8 453,335 453,335" id="Line_2" stroke="#508E9D" stroke-width="6"></path>
                <circle id="Dot_21" fill="#508E9D" cx="22" cy="350" r="15"></circle>
                <circle id="Dot_22" fill="#508E9D" cx="114" cy="146" r="15"></circle>
                <circle id="Dot_23" fill="#508E9D" cx="191" cy="161" r="15"></circle>
                <circle id="Dot_24" fill="#508E9D" cx="284" cy="335" r="15"></circle>
                <circle id="Dot_25" fill="#508E9D" cx="360" cy="338" r="15"></circle>
                <circle id="Dot_26" fill="#508E9D" cx="453" cy="335" r="15"></circle>
            </g>
            <text id="title" font-family="Rubik-Regular, Rubik" font-size="60" font-weight="normal" fill="#000000">
                <tspan x="390" y="145">Line</tspan>
            </text>
        </g>
    </g>
</svg>