<?xml version="1.0" encoding="UTF-8"?>
<svg width="525px" height="436px" viewBox="0 0 525 436" version="1.1" xmlns="http://www.w3.org/2000/svg" xmlns:xlink="http://www.w3.org/1999/xlink" style="background: #FFFFFF;">
    <title>export area</title>
    <defs>
        <rect id="path-1" x="208" y="72" width="485" height="395" rx="9"></rect>
        <filter x="-8.5%" y="-7.8%" width="116.9%" height="120.8%" filterUnits="objectBoundingBox" id="filter-2">
            <feMorphology radius="6" operator="dilate" in="SourceAlpha" result="shadowSpreadOuter1"></feMorphology>
            <feOffset dx="0" dy="10" in="shadowSpreadOuter1" result="shadowOffsetOuter1"></feOffset>
            <feGaussianBlur stdDeviation="10" in="shadowOffsetOuter1" result="shadowBlurOuter1"></feGaussianBlur>
            <feComposite in="shadowBlurOuter1" in2="SourceAlpha" operator="out" result="shadowBlurOuter1"></feComposite>
            <feColorMatrix values="0 0 0 0 0   0 0 0 0 0   0 0 0 0 0  0 0 0 0.5 0" type="matrix" in="shadowBlurOuter1"></feColorMatrix>
        </filter>
    </defs>
    <g id="viz-icons-for-EDA" stroke="none" stroke-width="1" fill="none" fill-rule="evenodd">
        <g id="Map" transform="translate(-190.000000, -54.000000)">
            <g id="Blank_globe" transform="translate(300.000000, 159.000000)" fill-rule="nonzero">
                <path d="M301,152.502263 C301,235.617884 233.61991,303 150.502262,303 C67.3846154,303 0,235.619392 0,152.502263 L0,152.502263 C0,69.3821164 67.3831071,2 150.502262,2 C233.621418,2 301,69.3821164 301,152.502263 Z" id="Path" stroke="#CCCCCC" stroke-width="0.75" fill="#FFFFFF"></path>
                <path d="M139.368578,292.908097 C138.609105,292.793387 137.957912,292.422089 137.911291,292.09758 C137.870686,291.765525 137.816545,291.264423 137.783459,290.977648 C137.702248,290.277312 134.189118,287.189196 131.883626,285.788526 C130.719601,285.088191 129.787178,284.012029 129.405185,282.935868 C129.06079,281.984982 128.597586,281.204651 128.376512,281.204651 C128.159949,281.204651 127.983992,280.880142 127.983992,280.481676 C127.983992,280.078681 127.507253,279.423626 126.926744,279.007048 C126.350747,278.604053 126.019887,278.027484 126.203364,277.731653 C126.4094,277.399597 126.23645,277.312055 125.7552,277.491667 C125.186722,277.716559 124.980687,277.46148 124.980687,276.575496 C124.980687,275.80875 124.117443,274.456378 122.670683,272.930433 C120.283981,270.444545 119.259819,267.388125 120.339625,266.010095 C120.614841,265.664455 120.981794,264.764887 121.165271,264.010215 C121.34574,263.258562 122.168378,262.13863 122.986504,261.525836 C124.764124,260.209689 124.815257,259.723681 123.427149,257.364578 C122.846641,256.377467 122.505253,255.231876 122.670683,254.800204 C122.831602,254.380606 122.036034,252.110554 120.897575,249.774091 C119.362085,246.598434 118.118353,244.858161 116.021904,242.935258 C113.49233,240.621435 110.955237,237.119759 110.955237,235.937944 C110.955237,235.697958 111.296624,235.488159 111.707191,235.488159 C112.217016,235.488159 112.463657,234.964417 112.474184,233.859578 C112.484712,232.96001 112.818579,231.788759 113.226139,231.249924 C114.533035,229.511161 113.76153,225.946092 112.374926,227.328651 C112.033539,227.677309 111.465062,227.955028 111.101116,227.955028 C110.17922,227.955028 110.293517,226.4804 111.248499,226.115139 C112.698267,225.555173 110.892073,224.954454 107.702283,224.94087 C106.049488,224.933323 104.444817,224.75673 104.136516,224.557497 C103.828215,224.346189 102.980011,223.01042 102.26415,221.575035 C101.118172,219.294418 100.703093,218.914063 99.0623293,218.604648 C96.5432827,218.130714 93.452751,218.136751 88.9244828,218.624269 C85.4038332,219.007642 85.0068014,218.94425 82.6637121,217.683949 C80.7251742,216.645521 79.1941954,216.275731 75.9036438,216.059895 C71.0309806,215.730859 70.6234214,215.472761 66.247048,209.86857 C64.8408936,208.073961 62.6632343,205.655994 61.4119825,204.489272 C59.9170975,203.096148 59.3230537,202.237332 59.6900074,201.976215 C60.5863368,201.349838 59.9065702,198.574156 58.4568025,196.938028 C57.725903,196.112418 56.8416048,195.015125 56.4957059,194.49893 C56.1467992,193.972169 55.4053723,192.86733 54.8474223,192.044738 C54.0954681,190.924805 53.9300382,190.150512 54.1977339,189.03058 C54.3992576,188.197423 54.5827344,186.396776 54.5947657,185.014218 C54.6128126,183.411296 54.9105865,182.235517 55.4174036,181.749509 C56.4716434,180.747305 57.5063324,178.234249 56.8671713,178.234249 C56.5994756,178.234249 56.3784011,177.556554 56.3784011,176.723397 C56.3784011,175.897786 56.5724052,175.220091 56.8115267,175.220091 C57.0506481,175.220091 57.2190859,175.615539 57.1890077,176.097019 C57.0536559,178.072749 58.0522511,177.31355 58.2357279,175.298577 C58.3710797,173.842061 58.2612944,173.22323 57.9093798,173.448122 C57.2416445,173.857154 57.2341249,173.967336 58.1289504,169.697405 C58.7380333,166.781354 59.2779365,165.653875 61.0119428,163.634374 C62.1834875,162.268418 63.5339972,161.029247 64.0152479,160.875294 C64.4995064,160.719832 64.8890187,160.264011 64.8890187,159.850451 C64.8890187,158.516191 66.4094701,156.757807 67.8111127,156.478578 C68.5901373,156.321606 69.4894745,155.642402 69.8744751,154.923955 C70.4068586,153.929298 70.8174256,153.711952 71.7242824,153.936844 C72.4476623,154.125512 72.9033466,154.01533 72.9033466,153.656107 C72.9033466,153.339145 73.1830735,153.121799 73.5274686,153.182173 C73.8718636,153.236509 74.4929778,153.138402 74.9050487,152.961809 C75.3156157,152.788234 76.245031,152.433539 76.9608914,152.169404 C77.9670062,151.801124 78.3384715,151.241158 78.5806008,149.758983 C79.0031991,147.087446 82.0095119,144.017442 84.9722115,143.229565 C87.7815124,142.485459 89.8779607,139.880333 89.5320618,137.551416 C89.3816709,136.50846 89.0297564,136.043582 88.3936031,136.043582 C87.8912977,136.043582 87.343875,135.815672 87.1739334,135.542481 C87.0009839,135.266271 86.4279948,135.03836 85.8895956,135.03836 C84.7360979,135.03836 84.6924845,134.632347 85.6880719,133.302615 C86.1587952,132.679257 86.3197134,131.761576 86.1362366,130.782013 C85.9091464,129.554917 86.161803,128.836469 87.376961,127.302977 C88.9665922,125.298569 89.9140545,122.708537 89.921574,120.367545 C89.9245819,119.196295 90.2148362,118.926123 91.9774168,118.447661 C93.6813451,117.99033 94.1761309,118.028064 94.8919913,118.6801 C95.3687303,119.111772 96.0921102,119.464958 96.4966616,119.464958 C96.9042208,119.464958 97.4546512,119.692869 97.7268587,119.963042 C97.9945543,120.231705 99.3390485,120.799218 100.704597,121.215796 C103.0913,121.944809 103.231163,121.934244 104.053801,120.942605 C104.527532,120.372073 105.062924,119.125356 105.235873,118.178998 C105.613354,116.167044 105.111049,112.943087 104.420755,112.943087 C104.160579,112.943087 103.944016,112.629144 103.944016,112.239733 C103.944016,111.853341 103.605637,111.411104 103.192062,111.248095 C102.754424,111.079048 102.443115,110.327395 102.443115,109.438392 C102.443115,108.001498 102.552901,107.916975 104.404212,107.916975 C105.487026,107.916975 106.493141,108.200731 106.655563,108.546371 C106.813473,108.89201 106.802946,108.627875 106.637516,107.968292 C106.398394,107.017406 106.502164,106.82572 107.111247,107.061177 C107.536853,107.227205 107.977498,107.091364 108.099315,106.759308 C108.242186,106.347258 108.628691,106.439328 109.329512,107.068724 C110.299533,107.930559 110.449924,107.935087 112.281684,107.127588 L114.212703,106.2733 L112.457641,105.834081 C111.49514,105.594096 109.016699,105.310339 106.950329,105.200157 C104.882455,105.097522 102.798038,104.982812 102.319795,104.957153 C100.961766,104.875648 101.288114,104.062112 102.816085,103.719491 C103.575558,103.550445 104.644837,103.059909 105.198276,102.632764 C106.010386,101.99884 106.064527,101.773948 105.499057,101.420762 C104.577161,100.853249 105.172709,99.3831489 106.329215,99.3831489 C106.99695,99.3831489 107.236071,99.0103412 107.221032,98.0051187 C107.205993,96.7931162 107.375935,96.6421819 108.576054,96.7704761 C109.795724,96.8957515 109.946114,96.7523639 109.897989,95.5131933 C109.864903,94.6589051 109.750606,94.4551438 109.612247,94.9864326 C109.487422,95.472441 109.039258,95.8633609 108.616659,95.8633609 C108.142928,95.8633609 107.956444,95.5796044 108.127889,95.1192547 C108.367011,94.4958961 108.252714,94.4747653 107.430076,94.9909606 C106.890173,95.3335815 106.44652,96.0822156 106.44652,96.6633127 C106.44652,97.2413911 106.053999,98.0639831 105.569741,98.4865991 C104.556107,99.3740928 100.388777,100.09254 98.9314893,99.6291718 C97.4411161,99.1537287 97.6170733,96.9908401 99.2036967,96.2618274 C99.9601626,95.9192066 100.37073,95.4030112 100.212819,94.9939793 C99.8202991,93.9691353 101.446024,91.7443637 102.339346,92.0824565 C102.746905,92.2439562 103.498859,92.000952 103.999661,91.5406024 C104.529036,91.0621406 105.413334,90.8146083 106.111148,90.9474305 C106.915739,91.1028929 107.502263,90.865926 107.888768,90.2546421 C108.245194,89.6841104 108.27076,89.3339428 107.957948,89.3339428 C107.069138,89.3339428 107.415037,88.331739 108.332421,88.2728746 C109.165586,88.2140102 109.165586,88.2034448 108.332421,87.9860994 C107.153357,87.6766841 107.227048,87.1242646 108.637714,85.5953 C109.849864,84.2791529 111.46055,83.874649 111.46055,84.8798714 C111.46055,85.278338 111.677113,85.2662633 112.186938,84.8361005 C112.586978,84.504045 113.167486,84.3832976 113.471276,84.5749841 C113.772057,84.763652 114.469871,84.5161198 115.006766,84.0255833 C115.788799,83.3146827 116.112139,83.263365 116.600909,83.7599389 C117.092687,84.2534941 116.876124,84.6881849 115.584267,85.8564164 C114.178113,87.1272832 114.089382,87.3310446 114.957137,87.3310446 C116.286592,87.3310446 116.286592,88.8977427 114.957137,90.0976704 C113.797624,91.1511918 113.928464,92.8582588 115.515087,97.2655406 C116.602413,100.305357 116.773859,103.713454 115.841435,104.042491 C115.49704,104.167766 115.364696,104.428883 115.543661,104.625097 C116.101612,105.233363 118.740971,103.553464 120.162164,101.672822 C121.392361,100.054807 121.751795,99.8857601 123.97006,99.8857601 C126.672584,99.8857601 126.756803,99.7785968 127.233541,95.9207159 C127.608015,92.929198 128.026101,92.3284794 130.277452,91.5541864 C131.772337,91.0349724 132.292689,91.0228977 132.590463,91.490794 C132.814546,91.8439803 132.979975,91.4168362 132.979975,90.4659501 C132.990503,88.6637945 132.274642,88.380038 130.70757,89.5739283 C130.172179,89.9799416 129.059286,90.3180345 128.229129,90.3255812 C125.997329,90.3482213 125.317562,88.9218921 125.74768,85.1334411 C126.213892,81.0657615 127.000436,79.6620725 129.451806,78.555724 C130.575226,78.0470754 131.489602,77.4539036 131.489602,77.2395769 C131.489602,77.0192128 132.282162,76.5543351 133.252183,76.2071862 C134.438767,75.7755141 135.59828,74.718974 136.795391,72.9711547 C137.778947,71.5448255 139.123441,70.0852908 139.791177,69.7321045 C140.455904,69.3668435 140.911588,68.9879984 140.797291,68.8702696 C140.682994,68.7555595 140.099478,68.929134 139.500922,69.2491147 C138.902367,69.5690954 138.293284,69.7139924 138.145901,69.5660767 C137.748869,69.1645915 141.001823,66.2908023 143.098271,65.1995473 C144.111905,64.6727865 145.077415,64.0132036 145.253372,63.7324658 C145.426321,63.4487093 146.229409,63.2162705 147.041519,63.2162705 C147.849118,63.2162705 148.513845,63.0351493 148.513845,62.8178039 C148.513845,62.2246321 151.502111,61.322045 153.595552,61.2812927 C154.873874,61.2556339 155.818328,61.6163669 156.750752,62.4857485 C157.484659,63.1679715 158.411067,63.7203911 158.806594,63.7203911 C159.206634,63.7203911 159.532982,63.9483019 159.532982,64.2245117 C159.532982,64.5007214 159.976635,64.7256136 160.524058,64.7256136 C162.297166,64.7256136 167.933815,67.3413051 168.514323,68.4355788 C168.840671,69.0362973 169.625712,69.5268338 170.350595,69.5706048 C171.517628,69.6400346 171.550714,69.5781515 170.830342,68.7781997 C170.401728,68.2997379 170.04831,67.5329916 170.04831,67.072642 C170.04831,66.6077643 169.816708,66.2289192 169.5445,66.2289192 C169.269285,66.2289192 169.042195,65.8681863 169.042195,65.4214207 C169.042195,64.798062 169.416668,64.6622211 170.672432,64.846361 C171.564249,64.9686178 172.692181,65.2402995 173.16892,65.4500982 C173.811089,65.730836 174.508902,65.2946359 175.871443,63.7807648 C177.056523,62.4510336 178.297247,61.6178762 179.384573,61.4110962 C182.598425,60.8103777 180.71854,58.69126 177.306172,59.0746331 C175.966189,59.2255674 174.66982,59.0263342 173.668217,58.5041015 C172.34929,57.8218784 172.063547,57.3328512 171.81089,55.3088222 C171.645461,53.9972031 171.380773,52.3565472 171.22587,51.6682867 C170.616787,48.9076983 170.892002,47.5009906 172.236497,46.5199176 C172.958373,45.9886288 173.558432,45.2188639 173.558432,44.8068132 C173.558432,44.361557 173.913354,44.1291182 174.432203,44.2362815 C175.117985,44.3721224 175.265368,44.7962478 175.114977,46.1591846 C175.005192,47.1176174 174.895407,49.5597345 174.875856,51.5943289 C174.836754,54.8514913 174.964586,55.4008921 175.963182,56.2114094 C177.453555,57.4203931 181.816393,58.2414758 184.32792,57.7841448 L186.33263,57.4158651 L184.952042,56.214428 C184.195576,55.5472984 183.578974,54.55566 183.578974,54.0032405 C183.578974,53.4508209 183.263153,52.6478504 182.88116,52.2086316 C182.49616,51.7739408 182.022428,50.6494802 181.823913,49.7136875 C181.479518,48.0805783 181.515611,48.0292606 182.738289,48.3356573 C183.846669,48.611867 184.030146,48.4790449 184.17001,47.2821358 L184.326416,45.9041056 L185.449836,47.1236548 C186.364212,48.1077465 186.577767,48.1817043 186.577767,47.4919345 C186.577767,47.0270568 186.331126,46.6436837 186.022825,46.6436837 C185.696477,46.6436837 185.559621,46.1199417 185.703996,45.3864009 C185.831828,44.6966312 185.765656,44.1291182 185.552101,44.1291182 C185.335539,44.1291182 185.019718,43.1706853 184.843761,41.9949071 C184.200088,37.7430877 184.006084,37.2012335 183.045086,36.9461545 C181.672018,36.5854216 181.796842,35.0957 183.199989,35.0745691 C184.294834,35.056457 184.296338,35.0413636 183.320301,34.4919627 C182.774383,34.1780194 182.153269,33.6738988 181.954753,33.3750489 C181.702096,32.9962038 181.584791,32.9916757 181.577272,33.3644835 C181.569752,33.6588054 180.126,34.1900941 178.367931,34.5402617 C174.993161,35.2149381 173.910347,34.9824992 172.517727,33.2769416 C171.860519,32.4815178 171.94173,32.4362375 173.516323,32.7456528 C174.702906,32.9856384 175.594724,32.8452694 176.442928,32.2883219 C177.169316,31.8098601 178.139337,31.6060988 178.865725,31.7902387 C179.581585,31.9713598 180.070355,31.8717432 180.070355,31.5547811 C180.070355,31.1970668 180.82231,31.123109 182.251023,31.3374357 C183.986533,31.5955334 184.49335,31.5034635 184.739991,30.8695394 C185.117472,29.8748823 186.607845,29.8567702 189.704393,30.8001096 C192.012892,31.5079915 192.083576,31.4959168 192.083576,30.4725822 C192.083576,29.8945038 192.476096,29.1277575 192.960354,28.7549498 C193.757426,28.1466845 193.71682,28.0848014 192.489631,28.069708 C190.889472,28.0515959 190.528534,27.6093584 190.915039,26.1271835 C191.145137,25.2472365 191.582774,25.0283817 193.267152,24.9997042 C194.40561,24.9740454 195.055299,24.8442419 194.713911,24.7053823 C194.366509,24.5650134 194.086782,24.140888 194.086782,23.7544962 C194.086782,21.9417752 188.946423,20.5048806 187.201889,21.8270651 C185.428781,23.1764178 182.06905,22.328167 182.06905,20.5305394 C182.06905,19.9992507 181.846471,19.4317377 181.569752,19.2626913 C180.670415,18.7057437 181.040376,17.5043066 182.120183,17.5043066 C182.748816,17.5043066 183.27368,17.9057918 183.431591,18.5065104 C183.574462,19.0559113 183.930888,19.5132422 184.219639,19.5132422 C184.509893,19.5132422 185.156574,19.8890686 185.651359,20.3388529 C186.496556,21.1010711 186.583783,21.1010711 186.874037,20.3388529 C187.045483,19.8890686 187.501167,19.5132422 187.887671,19.5132422 C188.717829,19.5132422 188.808063,18.7102717 188.042574,18.2303006 C187.741792,18.0461607 187.609448,17.4756291 187.741792,16.9669805 C187.913238,16.3043789 187.492143,15.7474313 186.279993,15.028984 C184.568545,14.0162148 184.043681,13.0064643 185.203195,12.961184 C186.224349,12.9204317 181.484029,10.629249 179.57557,10.2307824 C178.608556,10.0315491 175.342067,8.66861232 172.313196,7.20153087 C169.279813,5.73444941 166.294554,4.38660606 165.674944,4.20246621 C164.407149,3.82965847 164.146973,2.93461804 165.295959,2.93461804 C165.706526,2.93461804 166.049417,2.70670723 166.049417,2.43351614 C166.049417,2.15730636 166.387797,1.93241425 166.798364,1.93241425 C167.211939,1.93241425 167.54731,2.15730636 167.54731,2.43351614 C167.54731,2.70670723 168.16692,2.93763672 168.927898,2.93763672 C169.679852,2.94065541 170.979229,3.29836971 171.806379,3.73758854 C173.826128,4.80318474 178.564943,5.31032401 178.564943,4.46056387 C178.564943,4.06662533 178.895803,3.95946197 179.443226,4.17378869 C179.922972,4.35792854 182.909734,5.06128241 186.076966,5.74350547 C189.241189,6.41818182 192.286603,7.18492809 192.837034,7.44151641 C195.300436,8.60220123 197.793916,9.46403611 198.682726,9.46403611 C199.215109,9.46403611 200.31597,9.80967567 201.123569,10.2307824 C202.453024,10.9205522 202.598903,10.9205522 202.598903,10.2307824 C202.598903,9.81118502 202.830505,9.46403611 203.10572,9.46403611 C203.377928,9.46403611 203.605018,9.80665699 203.605018,10.215689 C203.605018,10.6277396 203.999042,10.9703605 204.486308,10.9703605 C204.975079,10.9703605 206.605315,11.4427849 208.118247,12.0208633 C209.626667,12.595923 211.664463,13.2373938 212.645011,13.4426644 C214.649721,13.8547151 219.626154,16.4341824 219.626154,17.0650878 C219.626154,17.6356194 213.920326,16.3647526 209.363483,14.7769237 C208.813053,14.5822184 209.207077,14.9459701 210.234246,15.5844222 C211.261416,16.2228743 212.10962,17.0318822 212.10962,17.3790311 C212.114132,17.721652 212.348741,18.0054085 212.628468,18.0054085 C212.908195,18.0054085 214.097787,18.8793181 215.2573,19.9554797 C216.419821,21.0316413 219.738947,23.3228241 222.632467,25.0449845 C225.525987,26.7701636 228.595464,28.8515477 229.461715,29.6696117 C230.452791,30.6099324 231.158124,30.9555719 231.368671,30.6129511 C231.855937,29.820546 231.236327,29.0583277 230.377595,29.3888738 C229.68279,29.6545182 229.565485,29.4703784 229.445172,27.9293391 C229.418102,27.5836995 229.051148,27.0373174 228.645093,26.7173366 C227.142688,25.5415584 228.612007,25.5158996 231.971738,26.6433788 C235.469829,27.8221757 236.506022,28.5300576 235.584126,29.0975706 C235.278833,29.2922759 235.411177,29.5503736 235.907467,29.7465881 C236.37067,29.9231813 236.960202,29.935256 237.221882,29.772247 C237.48657,29.6062192 238.00993,29.7314947 238.396435,30.0484568 C238.781435,30.3729655 239.78755,30.6491753 240.635755,30.6718154 C241.754662,30.7080397 242.141167,30.9374598 242.046421,31.5230849 C241.96521,32.046827 242.291558,32.3305835 243.00441,32.3411489 C244.303787,32.359261 249.179458,36.3393986 249.179458,37.3778267 C249.179458,38.3981426 248.484652,38.2728671 247.380784,37.0502992 C246.858927,36.4722208 245.982149,35.782451 245.427207,35.5168067 C244.242127,34.9492937 247.156701,37.6540364 251.537587,41.1798618 C253.331749,42.6243031 255.289838,44.7871917 256.160601,46.2950255 C257.727674,48.9816561 263.75985,55.4703219 266.755636,57.6890562 L268.449037,58.946339 L266.569151,56.3668717 C264.611062,53.6772224 264.391492,53.1685737 265.158485,53.1685737 C265.818701,53.1685737 274.428576,64.6727865 274.046584,65.048613 C273.870626,65.2221874 273.386368,65.0787998 272.966777,64.7286322 C271.899002,63.8366105 272.019315,64.3497871 273.205899,65.7232893 C274.192463,66.8734087 274.493244,67.7322249 273.903712,67.7322249 C273.735275,67.7322249 272.437402,66.4900356 271.017712,64.9716365 C269.596519,63.4577654 268.227962,62.211048 267.979817,62.211048 C267.730168,62.211048 267.08048,61.8171095 266.537569,61.3341197 C265.56454,60.4677568 265.56454,60.4722848 266.385674,62.0857725 C266.928585,63.143822 267.017316,63.7143537 266.650362,63.7143537 C266.339053,63.7143537 266.217236,64.072068 266.378155,64.4961934 C266.573663,65.004842 266.477413,65.1557763 266.110459,64.9203188 C264.956961,64.2124369 266.242803,65.6976305 267.641438,66.6922876 L269.058119,67.7095848 L268.886674,66.2138258 C268.609955,63.8184984 269.561929,64.4826093 271.250818,67.8650471 C273.263047,71.8965024 273.742794,72.5002397 274.242092,71.6867037 C274.511291,71.2550316 275.377543,71.8889557 277.043873,73.7348823 C279.761435,76.7339469 281.068332,78.6870369 283.307652,83.0580944 C284.158864,84.7123343 285.3274,86.5627889 285.909413,87.1589794 C287.671994,88.9611351 288.249495,89.7822177 289.001449,91.5949387 C289.956431,93.8755561 289.941391,95.054353 288.957835,94.6755079 C288.369807,94.4475971 288.29762,94.5804193 288.661565,95.2505676 C289.321781,96.5003036 291.227233,105.815969 291.227233,107.800755 C291.227233,108.725982 291.716003,110.541722 292.314559,111.839757 C293.531221,114.485636 294.183917,119.467977 293.313154,119.467977 C293.016884,119.467977 292.520594,118.509544 292.218309,117.333766 C291.318972,113.841146 291.146022,113.353628 290.903893,113.604179 C290.776061,113.732473 290.997135,115.593493 291.407702,117.750345 C292.082957,121.332016 292.328094,121.837646 294.344835,123.709231 C297.172183,126.329451 298.030915,129.391908 298.479079,138.434382 C298.764822,144.278558 298.713689,145.089075 298.018883,145.089075 C297.59027,145.089075 297.233843,144.749473 297.233843,144.337423 C297.233843,143.920844 296.895464,143.582751 296.489409,143.582751 C296.078842,143.582751 295.740462,143.243149 295.740462,142.834117 C295.740462,141.706638 294.85466,141.923983 294.46966,143.140514 C294.059093,144.441567 294.653136,149.615595 295.211087,149.615595 C295.438177,149.615595 295.764525,150.581575 295.940482,151.755844 C296.172084,153.269715 296.579643,154.051555 297.32859,154.394175 C299.551366,155.419019 300.698848,164.668274 299.543847,172.204423 C299.139295,174.820115 298.56781,177.041868 298.273044,177.144503 C297.979782,177.238083 297.737653,177.645605 297.737653,178.028978 C297.737653,178.424426 297.510562,178.744407 297.233843,178.744407 C296.958628,178.744407 296.734546,178.401786 296.734546,177.985207 C296.734546,177.034321 294.668176,172.524404 294.128272,172.294984 C293.471064,172.018774 293.6771,171.10864 294.535832,170.479244 C295.248684,169.955502 295.19304,169.789475 294.032022,169.030275 C292.371707,167.936001 292.347645,166.21535 293.958331,164.696951 C294.997532,163.717387 295.32388,163.635883 295.975072,164.173209 C296.403686,164.530923 296.892456,164.681858 297.069917,164.505265 C297.576734,163.993597 295.67429,157.651338 295.014075,157.651338 C294.669679,157.651338 294.041046,155.983514 293.544756,153.760251 C292.049871,147.036128 291.624265,145.428678 290.54897,142.334524 L289.491723,139.320366 L288.977386,142.043221 C288.481096,144.633254 287.438888,145.95242 287.019297,144.512506 C286.914024,144.144227 286.563613,142.879397 286.247792,141.708147 C285.928964,140.532369 285.480799,139.573936 285.253709,139.573936 C285.019099,139.573936 283.970875,138.781531 282.918139,137.815551 C281.868411,136.842025 280.880343,136.057167 280.729953,136.064713 C280.200577,136.079807 277.197272,143.202397 277.197272,144.432511 C277.197272,145.107188 276.881451,146.717657 276.499458,148.017201 C275.669301,150.829107 274.600022,156.931381 274.651155,158.578074 C274.670706,159.224073 274.144338,160.881332 273.484122,162.269927 C272.372734,164.603372 272.330624,164.920334 272.996856,166.505144 C273.386368,167.451502 273.733771,169.291391 273.760841,170.598482 C273.822501,173.436047 274.532346,176.086454 275.379046,176.611705 C276.631802,177.385998 278.195867,180.20847 278.195867,181.693663 C278.195867,183.602982 277.302545,185.631539 276.288911,186.019441 C275.267757,186.413379 274.775979,185.528904 274.377443,182.609835 C274.018009,179.945844 273.378848,180.037914 272.461464,182.890572 C272.056913,184.13578 271.649354,184.5267 270.72445,184.5267 C269.76646,184.5267 269.219038,183.956169 268.09261,181.763093 C267.309074,180.249222 266.447334,178.925528 266.169111,178.837986 C265.889384,178.742898 265.111864,177.500708 264.436609,176.074379 C263.761354,174.649559 262.658989,172.898721 261.998773,172.187821 C261.338558,171.479939 260.643752,170.403777 260.449748,169.803059 C260.258751,169.203849 259.873751,168.708785 259.586504,168.708785 C259.302266,168.708785 259.183457,168.39937 259.33084,168.015996 C259.478223,167.632623 259.054121,166.515709 258.381874,165.531618 C257.715642,164.547526 257.174235,163.515135 257.174235,163.238926 C257.174235,162.958188 256.354605,162.840459 255.279311,162.968753 C254.008508,163.124216 252.749737,162.870646 251.424793,162.186914 C250.337468,161.631475 249.155396,161.174144 248.803481,161.174144 C248.451566,161.174144 248.1568,160.852654 248.1568,160.461734 C248.1568,160.067796 247.466506,159.596881 246.62131,159.412741 C245.776113,159.224073 244.965507,158.750139 244.815116,158.354692 C244.660213,157.960753 244.088728,157.388712 243.536794,157.098918 C242.748746,156.679321 242.244937,156.762335 241.216263,157.513987 C240.494387,158.03773 239.10628,158.789382 238.146786,159.172756 C237.181277,159.568203 235.955592,160.285141 235.415688,160.790771 C234.872778,161.287345 234.20053,161.608835 233.914788,161.5062 C233.624534,161.406583 232.37629,161.619401 231.141581,161.992208 C228.336792,162.840459 225.521475,162.869137 224.730419,162.076732 C223.849129,161.196785 223.934852,162.858571 224.862763,164.65318 C225.70796,166.296855 226.742649,166.816069 228.341303,166.414584 C229.034605,166.23799 230.188103,166.557971 231.352128,167.247741 C233.110197,168.28315 233.216974,168.480874 232.919201,170.16681 C232.747755,171.161467 232.478555,172.820235 232.322149,173.858663 C232.149199,175.001236 231.764199,175.740814 231.338593,175.740814 C230.867869,175.740814 230.636268,176.352098 230.636268,177.632021 C230.636268,178.973827 230.353533,179.698312 229.637672,180.148096 C229.087242,180.492226 228.631558,181.246898 228.631558,181.817429 C228.631558,182.451354 228.227006,182.975096 227.607396,183.136595 C226.986282,183.298095 226.468937,183.962206 226.3005,184.804419 C226.12755,185.678329 225.613213,186.307725 224.952998,186.481299 C223.286667,186.908444 220.209671,189.69771 220.033713,190.942918 C219.935959,191.640234 218.925333,192.686209 217.371795,193.706525 C215.994215,194.61364 214.332397,195.848283 213.685716,196.45202 C212.187823,197.840615 207.546762,200.851755 206.900081,200.851755 C206.627874,200.851755 205.79922,201.43738 205.051778,202.155827 C204.226132,202.95427 203.059099,203.490086 202.060504,203.536876 C200.591186,203.607815 200.305443,203.381414 199.287297,201.355875 C197.870615,198.525857 197.506669,197.469317 197.33372,195.626409 C197.238974,194.604584 196.426863,193.458992 194.671802,191.85607 C193.283695,190.585203 192.020412,189.084916 191.859493,188.506838 C191.701583,187.931778 190.83834,187.14692 189.94953,186.748453 C188.689254,186.193015 188.17191,185.528904 187.639526,183.775047 C186.486029,179.982068 185.473898,178.240286 184.218135,177.926343 C183.568446,177.757297 182.697683,176.975457 182.287116,176.177014 C181.873542,175.381591 181.347174,174.728045 181.109556,174.728045 C180.874946,174.728045 180.539575,174.219396 180.371137,173.600566 C179.835746,171.670116 176.883573,168.610678 175.913553,168.983485 C175.442829,169.163097 175.059333,169.653634 175.059333,170.07474 C175.059333,171.04072 177.655078,175.617048 179.053713,177.120354 C179.63723,177.742203 179.989144,178.457632 179.835746,178.708183 C179.468792,179.305883 180.046293,180.756361 180.655376,180.756361 C182.06153,180.756361 183.867724,183.821837 184.348975,187.035228 C184.613663,188.8238 184.998663,189.486402 186.14013,190.164097 C186.940209,190.63803 188.086187,192.050775 188.677223,193.299002 C189.272771,194.54421 190.00367,195.7381 190.29994,195.937334 C190.659374,196.187885 190.63832,196.310141 190.218729,196.31316 C189.884862,196.317688 189.74199,196.663328 189.899901,197.076888 C190.281893,198.067017 191.081973,198.042867 191.081973,197.040664 C191.081973,196.512393 191.448926,196.304104 192.205392,196.414286 C192.946819,196.516921 193.33182,196.918407 193.33182,197.581008 C193.33182,198.199839 194.139418,199.125066 195.450827,200.009541 C198.622569,202.131678 200.38515,203.951945 200.767143,205.477891 C201.313062,207.704172 202.749294,208.119242 205.498439,206.871015 C206.794808,206.280862 208.190435,205.583545 208.601002,205.329976 C209.011569,205.071878 209.691335,204.72171 210.098894,204.555683 C213.354856,203.254629 216.431853,201.632085 216.762713,201.043441 C216.982283,200.65705 217.604901,200.340087 218.140293,200.340087 C218.869688,200.340087 219.116329,200.685727 219.116329,201.743777 C219.116329,202.518069 219.396056,203.438769 219.740451,203.785918 C220.242757,204.294566 220.199143,204.51493 219.508849,204.90585 C219.038126,205.171495 218.774942,205.701274 218.920821,206.084647 C219.065196,206.465002 218.690723,207.740396 218.087656,208.92674 C217.4891,210.105537 216.4499,212.518977 215.792692,214.292455 C213.905287,219.321586 211.48249,222.645159 204.914922,229.204764 C195.838835,238.281953 191.060918,244.040097 192.606936,244.040097 C193.388968,244.040097 193.136312,245.963 192.330217,246.141103 C191.676017,246.281472 191.670001,246.473158 192.286603,247.659502 C193.091194,249.206578 193.058108,250.136334 192.158771,251.226079 C191.313575,252.243377 191.91213,254.431924 193.116761,254.741339 C193.975492,254.96925 194.068735,255.453749 193.998051,259.435396 L193.91684,263.878902 L191.853478,265.88331 C190.683437,267.025883 188.666696,268.293731 187.204897,268.815963 C185.780696,269.317065 184.338447,270.068718 183.995556,270.479259 C183.651161,270.89131 182.505183,271.67315 181.437408,272.218023 C179.307874,273.316824 178.656681,274.343178 179.479319,275.334816 C180.115473,276.109109 179.682347,279.476453 178.862717,280.12849 C178.554416,280.368475 177.148261,280.946554 175.742107,281.403885 C173.590014,282.111766 173.044095,282.554004 172.320715,284.152398 C171.461984,286.069264 171.296554,286.194539 164.372559,289.863752 C160.131538,292.115692 157.340284,292.657546 148.763494,292.905079 C144.351027,293.028845 140.125044,293.033373 139.368578,292.908097 Z M178.64465,258.649029 C178.229571,257.595507 177.653575,260.466278 177.99797,261.869967 C178.191974,262.64426 178.328829,262.488797 178.602541,261.162085 C178.799553,260.218745 178.816096,259.088247 178.64465,258.649029 Z M168.03608,251.632093 C168.03608,251.389088 167.569869,251.06458 167.004399,250.916664 C166.159203,250.6963 166.082503,250.776295 166.566762,251.358902 C167.228482,252.160363 168.03608,252.309788 168.03608,251.632093 Z M175.254841,240.025245 C176.280506,240.025245 177.700196,238.131019 177.354297,237.225413 C177.119687,236.606582 176.694081,236.493382 175.669919,236.746951 C174.916461,236.931091 174.218648,237.296352 174.134429,237.549922 C174.039683,237.80802 173.671225,238.0148 173.307279,238.0148 C172.952357,238.0148 172.562845,238.689476 172.44554,239.50754 C172.265071,240.704449 172.418469,241.013864 173.263666,241.136121 C173.833647,241.217626 174.372046,241.003299 174.460777,240.657659 C174.548004,240.309001 174.910446,240.025245 175.254841,240.025245 Z M296.698452,173.0406 C296.221713,172.598362 296.151029,172.679867 296.40519,173.390767 C296.581147,173.894888 296.757104,174.690312 296.794702,175.147642 C296.838315,175.609501 296.966148,175.449511 297.087964,174.798984 C297.212789,174.145439 297.03232,173.354543 296.698452,173.0406 Z M296.224721,171.463336 C296.224721,170.501885 295.913412,170.501885 295.546458,171.463336 C295.38554,171.879915 295.468255,172.219517 295.740462,172.219517 C296.008158,172.219517 296.224721,171.879915 296.224721,171.463336 Z M218.117734,167.763936 C218.125254,167.056054 218.195937,167.045489 218.594473,167.689978 C219.223107,168.684635 219.699846,168.151837 221.597778,164.307541 C222.44899,162.576324 223.367878,161.168107 223.632566,161.168107 C223.897254,161.168107 224.113817,160.887369 224.103289,160.54173 C224.092762,160.193071 223.519773,160.56437 222.818952,161.359794 C221.221801,163.177043 218.038027,163.685691 215.722008,162.484254 C214.866284,162.042017 213.819564,161.814106 213.396966,161.975606 C212.648019,162.259362 209.094284,159.050499 209.094284,158.087538 C209.094284,157.849062 208.856666,157.652847 208.5619,157.652847 C208.267134,157.652847 208.172388,157.429464 208.342329,157.151745 C208.510767,156.875535 208.411509,156.650643 208.118247,156.650643 C207.829497,156.650643 207.582856,157.156273 207.579848,157.778123 C207.572328,158.691275 207.48059,158.765233 207.08807,158.153949 C206.669983,157.504931 206.5993,157.512478 206.59178,158.239981 C206.588772,158.700331 206.306037,159.201433 205.960139,159.352367 C205.531525,159.536507 205.687931,159.886675 206.463948,160.457206 C207.08055,160.914537 207.587367,161.595251 207.587367,161.968059 C207.587367,162.346904 207.903188,162.520478 208.303228,162.366525 C208.725826,162.200498 209.375514,162.660847 209.922937,163.512117 C210.422235,164.293957 211.166669,165.234277 211.584756,165.602557 C211.999835,165.966309 212.099093,166.14743 211.802823,165.996495 C211.505049,165.853108 211.2554,166.023664 211.2554,166.384397 C211.2554,166.737583 211.57874,167.028886 211.965245,167.028886 C212.441984,167.028886 212.599894,166.634948 212.452511,165.847071 C212.258507,164.832792 212.37882,164.712045 213.28718,164.988254 C214.640698,165.400305 214.553471,165.29767 215.073823,167.102844 C215.379117,168.179006 215.330992,168.723878 214.930952,168.897453 C214.520385,169.066499 214.551967,169.280826 215.055777,169.629484 C215.964137,170.251334 218.102695,168.947261 218.117734,167.763936 Z M141.498113,160.162885 C141.717683,158.194701 141.968836,157.793216 143.499815,157.02647 C145.77222,155.891444 147.769411,155.911065 148.937948,157.085334 C149.452284,157.601529 150.744142,158.187154 151.82094,158.386388 C152.888715,158.58864 153.989576,158.931261 154.266295,159.148606 C154.54151,159.36897 155.553641,159.672348 156.520654,159.830829 C157.483155,159.986291 159.402142,160.324384 160.775211,160.585501 C162.916776,160.983967 163.482246,160.917556 164.620704,160.10402 C166.016331,159.104835 168.520339,158.866359 171.567257,159.421797 C173.872749,159.845923 174.18105,159.436891 175.502986,154.105891 C176.80537,148.851868 176.486542,145.958457 174.570562,145.685266 C173.887788,145.590177 173.212533,145.8362 172.962884,146.275419 C172.316204,147.428557 169.639247,147.855701 168.625612,146.968208 C167.296157,145.796957 165.533577,145.401509 165.533577,146.2724 C165.533577,147.716842 162.904745,148.063991 161.626423,146.784068 C160.854918,146.009775 160.775211,146.032415 160.522554,147.12367 C160.245835,148.314542 159.024661,149.153736 159.024661,148.159079 C159.024661,147.857211 158.556946,147.141782 157.98546,146.57125 C157.416983,146.000719 157.078604,145.19322 157.233506,144.776641 C157.447061,144.219694 157.2696,144.109512 156.520654,144.352516 C155.807801,144.580427 155.525066,144.437039 155.525066,143.851414 C155.525066,143.406158 155.749149,143.173719 156.024364,143.342766 C156.296571,143.511812 156.523662,143.416723 156.523662,143.122401 C156.523662,142.82808 156.179267,142.588094 155.749149,142.588094 C155.147585,142.588094 155.00321,142.083973 155.090437,140.336154 C155.156609,139.098493 155.054343,137.930261 154.863347,137.741593 C154.669342,137.546888 154.515944,137.660089 154.515944,137.981579 C154.515944,138.303069 154.177564,138.564185 153.770005,138.564185 C153.359438,138.564185 153.021059,138.229111 153.021059,137.812533 C153.021059,137.403501 153.245141,137.06088 153.520356,137.06088 C153.797076,137.06088 154.019654,136.685053 154.019654,136.227722 C154.019654,135.565121 153.828658,135.627004 153.036098,136.541666 C152.485667,137.168043 151.344201,137.827626 150.483965,138.004219 L148.922908,138.3242 L150.222285,139.727889 C150.956193,140.523313 151.771311,140.977625 152.099163,140.778392 C152.414984,140.579158 152.542816,140.635004 152.381898,140.893102 C152.22098,141.151199 152.9985,142.352636 154.106881,143.56162 C155.836375,145.437734 156.009325,145.816579 155.311511,146.207499 C154.863347,146.455031 154.628737,146.874628 154.786647,147.132726 C154.947566,147.390824 154.867858,147.60515 154.60317,147.60515 C154.338483,147.60515 153.994088,147.270076 153.839185,146.861044 C153.678267,146.436919 153.222583,146.245232 152.784945,146.415788 C152.239026,146.625587 152.01344,146.397676 152.01344,145.638476 C152.01344,144.349497 150.589239,143.659728 149.968125,144.646838 C149.729003,145.03323 149.524472,145.969022 149.516952,146.728222 C149.516952,147.487422 149.28535,148.106252 149.010135,148.106252 C148.737928,148.106252 148.510838,147.929659 148.510838,147.712314 C148.510838,147.497987 147.835583,147.063296 147.012945,146.753881 C145.999311,146.370508 145.507532,145.840728 145.507532,145.135865 C145.507532,144.557787 145.184192,144.085362 144.78716,144.085362 C143.744952,144.085362 143.263701,143.042406 144.066788,142.530739 C144.569094,142.216796 144.588644,142.09152 144.13296,142.088501 C143.788565,142.085483 143.508838,141.638717 143.508838,141.10441 C143.508838,140.567084 143.277236,139.987496 142.999013,139.815431 C142.051551,139.225278 141.034909,136.023961 141.328171,134.549333 C141.562781,133.391667 141.338698,132.8317 140.260396,131.829497 C139.518969,131.136708 138.138381,130.315626 137.201446,130.001682 C136.264511,129.695286 135.497518,129.198712 135.497518,128.907408 C135.497518,128.620633 134.990701,127.887093 134.374099,127.274299 C132.51226,125.461578 131.488098,124.024684 131.488098,123.232279 C131.488098,122.089706 130.50755,122.347804 130.01878,123.61867 C129.684912,124.49258 129.857862,125.037453 130.790285,126.03211 C131.447493,126.739992 131.987396,127.671257 131.987396,128.09991 C131.987396,129.311912 133.948493,131.530647 135.031307,131.530647 C135.560682,131.530647 135.993808,131.829497 135.993808,132.187211 C135.993808,132.552472 137.014962,133.562222 138.251174,134.442169 C140.535611,136.060185 140.857448,136.719768 140.016763,138.057046 C139.619731,138.69097 139.385121,138.627578 138.493304,137.666126 C137.912795,137.042768 137.208966,136.674488 136.926231,136.851081 C136.577324,137.065408 136.587852,137.344636 136.956309,137.712916 C137.254083,138.014784 137.503732,138.64569 137.503732,139.113586 C137.503732,140.29993 134.969646,143.086177 133.886832,143.086177 C133.229624,143.086177 132.998022,143.480116 132.998022,144.594011 C132.998022,146.263344 132.055072,146.587853 130.817355,145.345664 C130.402276,144.929085 129.913506,144.594011 129.730029,144.594011 C128.966044,144.594011 126.487603,142.464328 126.487603,141.804745 C126.487603,140.912723 128.889345,140.271252 129.587158,140.971588 C130.214288,141.597965 133.589058,141.152709 134.128962,140.370869 C134.735037,139.496959 134.06279,137.571038 132.745366,136.387713 C130.032315,133.95918 128.893856,133.03848 128.578036,133.026406 C128.390047,133.018859 127.57944,132.116272 126.771842,131.01747 C125.964243,129.91565 125.006253,129.020609 124.645315,129.020609 C124.284377,129.020609 123.988107,128.792698 123.988107,128.516489 C123.988107,128.240279 124.227229,128.015387 124.52801,128.015387 C125.254398,128.015387 124.553577,125.908344 123.588068,125.200462 C123.012071,124.780865 122.442089,124.832182 121.282576,125.410261 C118.330404,126.880361 117.992024,127.013183 117.316769,127.013183 C116.942296,127.013183 115.918135,126.65245 115.036844,126.213231 C113.08026,125.233667 111.977895,125.583835 111.977895,127.189776 C111.977895,128.637236 111.376331,129.171544 108.724941,130.089224 C106.085582,130.999358 103.365011,133.446003 103.727453,134.57801 C104.025227,135.52135 101.187352,138.7604 100.45946,138.310616 C100.227858,138.167228 99.7029943,138.39212 99.2849078,138.811718 C98.4216643,139.678081 97.063635,139.777697 95.2860153,139.095474 C93.63322,138.466078 91.9443308,138.973217 91.9443308,140.102206 C91.9443308,141.21912 92.4285894,141.549666 94.2799006,141.690035 C95.061933,141.748899 95.9793171,142.06888 96.3207043,142.397917 C96.7312713,142.80393 97.392991,142.858266 98.3224064,142.571491 C103.796633,140.87348 105.016303,140.817635 114.47739,141.893796 C115.985811,142.067371 118.42515,142.185099 119.882437,142.154913 C121.736756,142.118688 122.613535,142.316412 122.801523,142.811477 C122.951914,143.205415 123.392559,143.40163 123.78508,143.250696 C124.258811,143.066556 124.49342,143.327672 124.49342,144.050647 C124.49342,144.640801 124.162561,145.247556 123.762521,145.4 C123.189532,145.627911 123.153438,145.911667 123.589571,146.767465 C125.064906,149.645782 125.084456,149.740871 124.412209,150.172543 C124.040744,150.408 123.373009,150.599687 122.921836,150.607234 C122.470664,150.607234 121.963846,150.967967 121.793905,151.395111 C121.625467,151.844895 121.709686,152.044128 121.99994,151.859988 C122.272148,151.690942 123.255704,152.36109 124.180607,153.345182 C125.113031,154.335311 126.350747,155.136772 126.956822,155.136772 C128.954013,155.136772 132.507748,157.085334 132.507748,158.176589 C132.507748,158.810513 133.017573,159.375007 133.880817,159.710082 C134.64029,160.001385 136.275039,160.763603 137.512755,161.402055 C140.631861,163.02158 141.197331,162.852534 141.498113,160.162885 Z M151.357736,150.758168 C150.563673,150.640439 150.038808,150.285744 150.148594,149.955197 C150.372676,149.277502 150.446368,149.272974 153.640669,149.819357 C158.057648,150.584594 155.941649,151.455484 151.357736,150.758168 Z M169.034676,150.589122 C169.034676,149.863128 170.346084,148.587733 170.713037,148.956012 C170.873955,149.117512 171.574777,148.874508 172.277102,148.414158 C173.579487,147.555342 174.009605,147.941734 172.940326,149.011858 C172.609466,149.343914 172.540286,149.612577 172.785423,149.612577 C173.027552,149.612577 172.797454,149.947651 172.260559,150.353664 C171.125108,151.215499 169.034676,151.366433 169.034676,150.589122 Z M157.337276,149.362026 C157.711749,148.400574 158.024562,148.400574 158.024562,149.362026 C158.024562,149.778604 157.804991,150.116697 157.540304,150.116697 C157.271104,150.116697 157.180869,149.781623 157.337276,149.362026 Z M130.478976,147.603641 C130.478976,146.96217 130.835402,146.96217 131.23093,147.603641 C131.399368,147.884379 131.30011,148.104743 131.006848,148.104743 C130.718097,148.104743 130.478976,147.887397 130.478976,147.603641 Z M119.904996,138.226093 C119.87191,137.993654 119.889957,137.58915 119.948609,137.31294 C120.007262,137.03673 120.047867,135.879064 120.047867,134.733473 C120.047867,133.123004 120.231344,132.677747 120.873513,132.729065 C121.520193,132.780383 121.663065,132.401538 121.54576,130.942003 C121.431463,129.497562 121.622459,128.978348 122.437578,128.539129 C123.341427,128.048592 123.466251,128.12255 123.436173,129.129282 C123.418126,129.763206 123.222618,130.732204 123.006055,131.277077 C122.781973,131.829497 122.7925,132.784911 123.021094,133.399213 C123.336915,134.247464 122.852656,137.157478 122.275155,137.872906 C121.978886,138.236658 119.948609,138.535508 119.904996,138.226093 Z M108.714413,135.079112 C108.273768,134.363684 108.83623,133.54562 109.764141,133.54562 C110.197267,133.54562 110.454435,133.895787 110.355178,134.381796 C110.164181,135.391546 109.165586,135.812653 108.714413,135.079112 Z M111.453031,134.076908 C111.453031,133.785605 111.680121,133.54562 111.955336,133.54562 C112.594497,133.54562 112.594497,133.898806 111.955336,134.297273 C111.677113,134.467828 111.453031,134.368212 111.453031,134.076908 Z M153.070688,143.948012 C152.660121,143.53898 152.51725,143.594826 152.51725,144.157811 C152.51725,145.160015 153.187993,145.834691 153.434634,145.083038 C153.541411,144.766076 153.375981,144.254409 153.070688,143.948012 Z M208.755904,136.932586 C209.489812,136.390731 209.527409,136.081316 208.990514,134.67008 C208.649127,133.77504 208.197954,133.041499 207.981391,133.041499 C207.763325,133.041499 207.587367,132.754724 207.587367,132.404556 C207.587367,132.05137 207.136195,130.923891 206.585764,129.894519 C206.035334,128.865147 205.582657,127.70899 205.582657,127.322598 C205.582657,126.943753 205.24127,126.349072 204.833711,126.003432 C204.420136,125.660812 204.081757,124.842748 204.081757,124.186183 C204.081757,123.31982 203.80203,122.995312 203.056091,122.995312 C202.498141,122.995312 201.469468,122.427799 200.786694,121.738029 C200.093392,121.04524 199.329406,120.480746 199.090285,120.480746 C198.848156,120.480746 198.236065,119.957004 197.736767,119.320061 C196.511082,117.765438 195.283893,117.359425 194.534946,118.269559 C194.079262,118.814431 194.061215,119.297421 194.453735,120.123032 C194.746997,120.731297 195.121471,121.795384 195.279381,122.488172 C195.434284,123.177942 195.732057,123.976385 195.944109,124.257123 C196.729149,125.322719 201.738668,129.017591 202.394372,129.017591 C202.773357,129.017591 203.081658,129.357193 203.081658,129.769243 C203.081658,130.181294 202.732751,130.523915 202.302633,130.523915 C201.674,130.523915 201.561206,131.073316 201.678511,133.409779 C201.813863,136.063204 201.931168,136.316774 203.081658,136.467708 C203.771952,136.559778 204.550976,136.846553 204.806641,137.094085 C205.499943,137.765743 207.760317,137.669145 208.755904,136.932586 Z M160.524058,135.554555 C160.524058,135.278346 160.169135,135.050435 159.745033,135.050435 C159.316419,135.050435 159.098353,135.278346 159.272806,135.554555 C159.672846,136.203573 160.524058,136.203573 160.524058,135.554555 Z M166.92018,132.344183 C168.917371,131.061241 173.543393,130.173747 173.543393,131.073316 C173.543393,131.360091 173.778003,131.452161 174.065249,131.272549 C174.352496,131.092937 174.920973,131.221231 175.318005,131.556306 C175.728572,131.895908 177.498672,132.160043 179.330432,132.160043 C182.047995,132.160043 182.814988,131.968356 183.813583,131.025017 C185.314484,129.613781 184.870831,128.552713 182.193874,127.141477 C181.151666,126.592076 179.062737,125.487237 177.545293,124.672192 C174.593121,123.094928 173.550912,123.076816 171.457472,124.565028 C169.834755,125.722695 168.535378,125.784578 168.535378,124.712944 C168.535378,124.270707 168.069166,123.787717 167.493169,123.636783 C166.780317,123.448115 166.52766,123.072288 166.697602,122.427799 C166.869047,121.768216 166.670532,121.492006 166.029867,121.492006 C165.526057,121.492006 165.001193,121.20825 164.858322,120.865629 C164.524454,120.047565 162.557342,122.406668 162.542303,123.632254 C162.530272,124.118263 162.074587,124.903121 161.521149,125.375546 C160.970719,125.854007 160.522554,126.856211 160.522554,127.630504 C160.522554,128.397251 160.316519,129.026647 160.077397,129.026647 C159.232201,129.026647 159.053235,131.263493 159.79767,132.409084 C160.854918,134.013516 164.36504,133.984839 166.92018,132.344183 Z M175.703005,120.800727 C175.850388,120.417354 175.733084,119.872481 175.445837,119.584196 C174.778102,118.90952 172.54179,119.860406 172.54179,120.818839 C172.54179,121.721426 175.35861,121.703314 175.703005,120.800727 Z M139.213676,99.6261531 C140.395748,98.723566 142.081629,98.6722483 142.914794,99.511443 C143.344912,99.9431152 143.645694,99.968774 143.890831,99.6004943 C144.089347,99.3061724 144.614211,98.930346 145.069895,98.7597902 C145.594759,98.565085 145.984271,97.6730632 146.149701,96.2874863 C146.292573,95.0935959 146.809917,92.938254 147.303199,91.4938127 C148.052145,89.3007373 148.449177,88.8147288 149.730507,88.4872013 C151.075001,88.1445805 150.902052,88.067604 148.255173,87.8427119 C146.50312,87.6947962 145.167649,87.7913942 145.045833,88.0826974 C144.693918,88.9309482 143.746456,89.7037318 142.623036,90.0584275 C141.495105,90.4161418 140.710065,91.9934053 141.234929,92.8476934 C141.579324,93.3970943 140.651412,95.419614 139.792681,95.991655 C139.491899,96.198435 138.738441,96.3644628 138.118831,96.3705001 C136.954805,96.3780469 136.61041,97.0859288 137.494709,97.6338203 C138.246663,98.1017166 138.090256,98.886575 137.242052,98.886575 C136.831485,98.886575 136.493106,98.6616829 136.493106,98.3854731 C136.493106,98.1092633 135.930644,97.8843712 135.24035,97.8843712 C134.550056,97.8843712 133.987594,98.1092633 133.987594,98.3854731 C133.987594,98.6616829 134.325974,98.886575 134.736541,98.886575 C135.151619,98.886575 135.493006,99.2322146 135.493006,99.6412466 C135.486991,100.62081 137.911291,100.613263 139.213676,99.6261531 Z M142.499716,93.5465193 C142.499716,92.9639129 142.841103,92.1971666 143.259189,91.8485083 C144.441261,90.8538513 144.555558,91.490794 143.47876,93.1344686 C142.614013,94.4521251 142.504227,94.5004241 142.499716,93.5465193 Z M133.453707,94.9019093 C134.041735,94.5291016 134.059782,94.227233 133.560484,93.2763469 C133.196538,92.5760117 133.061187,92.4914885 133.222105,93.0484361 C133.390542,93.6159491 133.145405,94.2574199 132.61603,94.6694705 C131.627962,95.415086 132.325775,95.617338 133.453707,94.9019093 Z M151.330666,93.1073004 C151.763791,91.9752932 150.551641,90.6893329 149.715468,91.389668 C149.186092,91.8213402 149.175565,92.1413209 149.646288,92.9005204 C150.368164,94.0627146 150.941154,94.1321444 151.330666,93.1073004 Z M171.039385,89.3746951 C171.039385,88.692472 170.155087,88.2472158 169.839267,88.7634111 C169.538485,89.2494196 169.97161,89.8501381 170.621299,89.8501381 C170.852901,89.8501381 171.039385,89.6373208 171.039385,89.3746951 Z M156.198817,87.0835123 C156.565771,86.1220608 156.308603,86.1220608 155.516043,87.0835123 C155.153601,87.5182031 155.108484,87.8351651 155.40325,87.8351651 C155.682977,87.8381838 156.037899,87.500091 156.198817,87.0835123 Z M146.63396,84.6323392 C147.049039,84.0210552 146.924214,78.7987282 146.494096,78.7987282 C146.343706,78.7987282 145.536107,79.4326523 144.695422,80.2024173 C142.713271,82.0196663 142.117723,84.1780269 143.35544,85.1108009 C144.299894,85.8232108 145.991791,85.5802066 146.63396,84.6323392 Z M162.026462,85.0926888 C162.026462,84.451218 160.612788,83.3131733 159.803686,83.3131733 C159.293861,83.3131733 159.507416,84.609699 160.124018,85.2224923 C160.954176,86.0586684 162.026462,85.9816919 162.026462,85.0926888 Z M149.792168,76.9829885 C151.6901,75.5279818 152.043518,74.2782458 150.544122,74.2782458 C149.563573,74.2782458 148.00402,75.5083604 148.00402,76.2826534 C148.00402,76.5150922 147.868669,77.0675118 147.703239,77.4991839 C147.270113,78.6296818 147.817536,78.4938409 149.792168,76.9829885 Z M165.282424,75.7815515 C165.113986,75.5083604 164.59213,75.295543 164.125918,75.3136551 C163.431113,75.3468607 163.461191,75.4283652 164.280821,75.7815515 C165.620803,76.3641579 165.635843,76.3641579 165.282424,75.7815515 Z M167.783424,73.0722807 C167.783424,72.1395067 167.493169,72.0217779 165.249338,72.0217779 C162.97994,72.0217779 162.733299,72.1244132 162.906249,73.0239817 C163.062655,73.8495923 163.51834,74.0412789 165.440334,74.0820312 C167.505201,74.1227834 167.783424,74.0050547 167.783424,73.0722807 Z M265.896904,63.7868022 C266.048799,63.5468166 265.853291,63.0789203 265.46829,62.7589395 C264.890789,62.2804778 264.808074,62.360473 265.032157,63.2011771 C265.323915,64.3392217 265.489345,64.4463851 265.896904,63.7868022 Z M185.624289,49.0284457 C185.132511,48.5348906 185.070851,48.5967736 185.344562,49.3091835 C185.532551,49.8072668 185.812278,50.0834765 185.965676,49.9280142 C186.123587,49.7770799 185.965676,49.3680479 185.624289,49.0284457 Z M244.150388,34.9085414 C244.150388,34.8089248 243.757868,34.4104582 243.276618,34.0316131 C242.484058,33.4082544 242.466011,33.4278759 243.090133,34.2232997 C243.738318,35.0549477 244.150388,35.3251201 244.150388,34.9085414 Z M208.094185,14.2758218 C208.094185,13.8969767 201.90109,12.0238819 201.624371,12.3227319 C201.320581,12.6547873 201.484507,12.7317638 205.090879,14.0101774 C207.092582,14.7225873 208.094185,14.8101292 208.094185,14.2758218 Z M197.923252,277.30149 C197.813467,277.102257 197.693154,276.018548 197.658564,274.891069 C197.604423,273.218717 197.876631,272.577246 199.117355,271.383356 C200.442299,270.115508 200.595697,269.688364 200.324994,268.080913 C199.96556,265.970852 201.140112,263.12574 202.359782,263.12574 C203.752401,263.12574 207.624965,260.991529 208.995026,259.477658 C214.512866,253.33916 214.553471,253.301426 215.284371,254.090812 C216.260407,255.126222 216.679998,258.92071 215.890446,259.581803 C215.547555,259.865559 215.118941,259.950082 214.938472,259.773489 C214.754995,259.589349 214.607612,260.04668 214.607612,260.78324 C214.607612,261.522818 214.380522,262.125046 214.105306,262.125046 C213.828587,262.125046 213.606009,262.34541 213.606009,262.618601 C213.606009,263.201207 210.256805,268.631824 207.345238,272.77648 C205.821779,274.949934 204.808145,275.838937 203.122263,276.483426 C200.579154,277.46299 198.218018,277.832779 197.923252,277.30149 Z M224.620634,264.662251 C224.620634,264.367929 224.843212,264.127944 225.119932,264.127944 C225.7621,264.127944 225.7621,264.484149 225.119932,264.879597 C224.844716,265.050152 224.620634,264.956573 224.620634,264.662251 Z M105.941206,233.524504 C105.941206,233.230182 106.172808,232.990197 106.443512,232.990197 C107.090192,232.990197 107.090192,233.346401 106.443512,233.741849 C106.1698,233.915424 105.941206,233.818826 105.941206,233.524504 Z M21.9674729,229.096091 C16.4015079,220.375107 9.488041,204.632659 6.12830963,193.034867 C0.781915264,174.551452 -1.22279464,153.437252 0.735294103,136.150746 C1.55041246,128.982876 2.43922232,128.537619 2.30236666,135.373434 C2.05572568,148.015692 2.14746409,152.607113 2.66932031,153.236509 C2.97461371,153.60177 3.48443866,155.480902 3.80326724,157.408333 C4.11908801,159.338783 4.58529961,161.303948 4.83494841,161.78241 C5.08158938,162.260871 5.29364047,163.7355 5.29815219,165.047119 C5.30567174,166.366285 5.61698077,168.793308 5.99596569,170.456604 C6.37795843,172.115372 6.82913095,174.598242 7.00508823,175.983819 C7.56303825,180.41374 11.6747238,190.428232 14.3336339,193.85595 C15.1006272,194.858153 16.7714694,197.85269 18.0347524,200.51819 C19.305555,203.18218 20.5357521,205.363181 20.7778814,205.363181 C21.3027454,205.363181 21.6922577,206.306521 22.6141535,209.785556 C23.6353073,213.622306 23.5029634,214.737711 21.7990352,216.864375 L20.275576,218.766148 L21.5824724,222.738738 C23.0322401,227.161114 24.2955231,231.987993 24.002261,231.987993 C23.8954835,231.984974 22.9811072,230.686939 21.9674729,229.096091 Z M224.116825,197.331967 C225.104892,196.690496 226.261398,196.690496 225.871886,197.331967 C225.703448,197.605158 225.068799,197.833069 224.465731,197.825522 C223.573914,197.822503 223.507742,197.728924 224.116825,197.331967 Z M195.074849,194.021977 C195.074849,193.137502 196.154656,193.292965 196.462957,194.225739 C196.572742,194.553266 196.30655,194.823439 195.867409,194.823439 C195.434284,194.821929 195.074849,194.456668 195.074849,194.021977 Z M43.0793391,175.701571 C42.8988701,175.407249 42.8702958,175.045007 43.0161749,174.898601 C43.3726012,174.537868 44.3486378,175.171792 44.3486378,175.760436 C44.3531495,176.404925 43.4868982,176.364173 43.0793391,175.701571 Z M44.8524471,173.722823 C44.8524471,173.076824 45.2088734,173.076824 45.6044013,173.722823 C45.772839,173.996014 45.6780928,174.226943 45.3803189,174.226943 C45.0915685,174.226943 44.8524471,173.999032 44.8524471,173.722823 Z M42.2236152,170.476226 C41.2175005,169.095177 41.1362894,168.699729 41.8461342,168.699729 C42.1183416,168.699729 42.3454318,168.962355 42.3454318,169.286863 C42.3454318,169.611372 42.7229128,170.292086 43.178597,170.797716 C43.6342813,171.301836 43.802719,171.704831 43.5530702,171.700303 C43.3034214,171.688228 42.7048659,171.143355 42.2236152,170.476226 Z M288.078049,155.334496 C287.879533,155.135263 287.729142,154.386629 287.742677,153.678747 L287.775763,152.379202 L288.25551,153.588186 C288.781878,154.899805 288.672093,155.932196 288.078049,155.334496 Z M65.6740589,152.696164 C65.4574961,152.345997 65.4214023,151.926399 65.5853283,151.760372 C66.033493,151.310588 66.5222632,151.974698 66.2786301,152.699183 C66.1086884,153.207832 65.9898797,153.207832 65.6740589,152.696164 Z M69.1450795,151.823764 C69.8654516,151.108336 70.5662729,150.637421 70.7091442,150.773261 C71.1016643,151.1672 69.2593765,153.133874 68.5029106,153.133874 C68.1194139,153.130855 68.3886136,152.585982 69.1450795,151.823764 Z M63.8798962,150.617799 C63.8798962,150.344608 64.2318107,150.116697 64.6619285,150.116697 C65.0920463,150.116697 65.3040974,150.344608 65.1326519,150.617799 C64.7311083,151.274363 63.8798962,151.274363 63.8798962,150.617799 Z M67.3855066,139.069815 C67.3855066,138.428344 67.7419329,138.428344 68.1374608,139.069815 C68.3058986,139.346025 68.2066406,139.570917 67.9178902,139.570917 C67.6246281,139.570917 67.3855066,139.346025 67.3855066,139.069815 Z M59.8734842,119.982663 C59.8734842,119.338173 60.2299105,119.338173 60.6254384,119.982663 C60.7938761,120.255854 60.6991299,120.486784 60.4058678,120.486784 C60.1080939,120.486784 59.8734842,120.258873 59.8734842,119.982663 Z M57.101781,115.939133 C56.6460968,115.195027 57.0100426,114.926364 57.8101219,115.430484 C58.2432475,115.691601 58.2943804,115.954226 57.9575049,116.159497 C57.6747701,116.337599 57.2882656,116.237983 57.101781,115.939133 Z M7.3765536,111.439781 C7.3765536,110.750011 7.49085064,110.466255 7.62921022,110.813404 C7.76456197,111.159043 7.76456197,111.723538 7.62921022,112.070687 C7.48934674,112.416326 7.3765536,112.137098 7.3765536,111.439781 Z M7.68786264,106.867981 C7.31639727,105.894455 8.31499245,101.399631 8.90753236,101.399631 C9.31509153,101.399631 9.0579232,103.610819 8.31198463,106.403103 C8.06985538,107.323803 7.90893718,107.441531 7.68786264,106.867981 Z M13.3064644,88.8403876 C13.3064644,88.5671965 13.5305468,88.3392857 13.805762,88.3392857 C14.0809773,88.3392857 14.3050596,88.5671965 14.3050596,88.8403876 C14.3050596,89.1165974 14.0809773,89.3445082 13.805762,89.3445082 C13.5305468,89.3445082 13.3064644,89.1165974 13.3064644,88.8403876 Z M14.8043572,86.0586684 C14.8043572,85.432291 16.4015079,82.7426417 16.6285981,82.9750805 C16.9008055,83.2437436 15.4420144,86.3363875 15.0419747,86.3363875 C14.9141425,86.3318595 14.8043572,86.2096027 14.8043572,86.0586684 Z M118.476283,82.7230202 C118.468763,82.2505958 118.703373,81.7208164 119.001147,81.5396952 C119.877926,80.9902944 120.007262,81.5698821 119.228237,82.6007634 C118.58306,83.4535422 118.491322,83.4641076 118.476283,82.7230202 Z M16.8120749,81.8717507 C16.8120749,81.5955409 17.0391651,81.2302799 17.3143803,81.0612335 C17.5865877,80.887659 17.8136779,80.9721822 17.8136779,81.2499014 C17.8136779,81.5276205 17.5865877,81.8943909 17.3143803,82.0649466 C17.040669,82.233993 16.8120749,82.1494698 16.8120749,81.8717507 Z M114.170593,76.791302 C114.170593,76.2388824 114.468367,75.7815515 114.830809,75.7815515 C115.337626,75.7815515 115.370712,76.021537 114.955633,76.791302 C114.283386,78.0470754 114.170593,78.0470754 114.170593,76.791302 Z M49.5416335,73.6518684 C49.6002859,73.3062288 49.8138409,72.7417345 50.0304037,72.3945856 C50.2800525,71.9931004 50.1371812,71.7651896 49.6408914,71.7651896 C49.2107736,71.7651896 48.858859,71.4376621 48.858859,71.0286302 C48.858859,70.5531871 49.1491134,70.4052715 49.6845048,70.6165795 C50.51767,70.9365602 50.4921036,70.2996175 49.5416335,67.0862261 C49.3506371,66.452302 49.5897585,66.091569 50.3161463,65.9029011 C50.8921432,65.7519668 51.3628665,65.4757571 51.3628665,65.2870892 C51.3628665,65.1029493 51.7674179,64.9188095 52.2727311,64.8856039 C53.7961903,64.7678752 57.3830119,63.0245839 57.2070546,62.4827298 C57.1153162,62.20652 56.5242802,61.9454036 55.8956465,61.9152168 C54.5631836,61.845787 53.7766395,60.8209431 54.1435932,59.6376181 C54.2864645,59.1772685 54.1691596,58.6505077 53.883417,58.4739146 C53.5931627,58.2927934 53.3615608,58.5659845 53.3615608,59.0897266 C53.3615608,59.6059219 53.030701,60.4647381 52.6276535,61.0020642 C51.4786675,62.5280101 51.6651521,60.7998123 52.8622632,58.8240822 C54.2398433,56.5645956 54.1255463,55.8793539 52.2998015,55.5110742 C49.8394073,55.017519 49.7115751,55.1201543 51.1839014,56.3880025 C52.5314034,57.551706 52.5389229,57.6075517 51.7012459,58.9010587 C51.2275148,59.6270527 50.5041348,60.2202245 50.1010874,60.2202245 C49.6935282,60.2202245 49.3596605,60.4224765 49.3596605,60.6654807 C49.3596605,60.908485 48.9009685,61.229975 48.3385067,61.3763813 C47.7835645,61.5242969 47.3624702,61.8337123 47.4090913,62.0661511 C47.6256542,63.1785369 46.6496176,65.7504575 46.0134644,65.7504575 C45.6164325,65.7504575 45.4149088,65.9496908 45.5622918,66.1851483 C45.7096749,66.4251338 46.4511017,66.5202225 47.2150872,66.4055124 C48.4858898,66.2032604 48.5325109,66.25005 47.7324317,66.9035956 C47.251181,67.2945154 46.8556531,67.9027807 46.8556531,68.2454016 C46.8556531,69.03026 44.4584231,68.5034992 43.309437,67.4680899 C42.8793192,67.07717 42.1348846,66.7571893 41.6641613,66.7571893 C40.9483009,66.7571893 40.9046875,66.5836149 41.3784187,65.6915931 C41.6912316,65.105968 42.3770138,64.5158149 42.8988701,64.375446 C43.4207263,64.2396051 43.8493402,63.9150963 43.8493402,63.6524706 C43.8493402,63.398901 43.6583438,63.2992844 43.4237341,63.4456906 C43.1891244,63.5890782 42.7409597,63.1513687 42.4326584,62.4691457 C42.1243572,61.7839039 41.6731847,61.2314844 41.4235359,61.2314844 C40.66707,61.2314844 38.3570667,63.2690975 38.4788833,63.8290638 C38.5420474,64.1233857 38.2728478,64.4811 37.8878473,64.6214689 C37.399077,64.8025901 37.2817722,64.6244876 37.4953272,64.0615026 C37.6712844,63.6086997 37.5900734,63.24042 37.3268894,63.24042 C37.0637055,63.24042 36.8426309,62.8645936 36.8426309,62.4042439 C36.8426309,61.634479 36.7764589,61.634479 35.9252468,62.4042439 C35.4229414,62.8645936 34.7687412,63.24042 34.4784869,63.24042 C34.1852248,63.24042 32.8407307,64.2350771 31.4932287,65.4470795 C29.4809993,67.2598006 28.7876975,67.6069495 27.631192,67.3896041 C26.5107802,67.1752773 25.9708771,67.4152629 24.9918327,68.572929 L23.7586278,70.024917 L24.6399181,68.4038826 C25.1241767,67.5194076 27.4522269,64.1958341 29.8058435,61.0262137 C52.0351136,31.1095249 84.454867,10.5175576 120.763728,3.25459877 C134.921521,0.417033813 151.929221,-0.75874443 160.35562,0.506085054 C162.785936,0.871346074 164.259766,1.25019118 163.623613,1.35735454 C162.984452,1.45998987 162.339275,1.86600315 162.188884,2.25994169 C162.027966,2.67953906 161.226383,2.97084227 160.245835,2.97084227 C158.414074,2.97084227 157.484659,3.76324738 158.887806,4.13152708 C159.621713,4.32623234 159.59765,4.37151263 158.744934,4.41830226 C158.182472,4.4545265 157.453077,4.74582971 157.125225,5.0748665 C156.717666,5.48087978 153.362446,5.71180927 146.385815,5.80387919 C134.298903,5.96990693 133.461226,6.06197686 129.948096,7.62112824 C128.450203,8.28372984 126.060493,8.9659529 124.634788,9.13499933 C123.206075,9.30404575 121.626971,9.66628808 121.124666,9.94249786 C120.625368,10.215689 119.545562,10.5839687 118.734955,10.7605618 C117.64011,10.9930006 117.443098,11.1877059 117.96345,11.509196 C118.345443,11.7446535 118.840229,11.8367234 119.058295,11.7008825 C119.27185,11.5680603 120.240367,11.6752237 121.205877,11.9408681 C122.260116,12.23519 123.070723,12.2427367 123.243673,11.9710549 C123.401583,11.7174853 123.243673,11.5107053 122.899277,11.5107053 C122.502246,11.5107053 122.443593,11.3371308 122.738359,11.0503557 C123.594083,10.2217263 126.711685,10.2654973 127.919324,11.1137481 C129.009657,11.8804944 129.024696,11.9574708 128.150926,12.4072551 C127.218502,12.8902449 123.767033,13.7188742 120.396774,14.2577097 C119.031225,14.4826018 118.491322,14.8478628 118.277767,15.7127164 C118.00556,16.7964247 117.734856,16.8764199 114.345046,16.8764199 C110.442404,16.8764199 105.834429,17.9450348 106.109644,18.7887575 C106.336734,19.4785273 108.8633,19.7396437 109.612247,19.1494905 C111.65305,17.5284561 116.754308,17.206966 116.169287,18.7404586 C115.868506,19.5283356 117.289699,20.2482923 117.733352,19.5328637 C117.89427,19.2672193 118.45974,19.0498739 118.999643,19.0498739 C119.554585,19.0498739 119.972672,18.7042343 119.972672,18.2423753 C119.972672,17.7080679 120.244879,17.5344935 120.762224,17.7382548 C121.199861,17.9042825 121.890155,18.0446514 122.300722,18.0446514 C122.95041,18.0446514 122.95041,18.13974 122.278163,18.8113977 C121.058494,20.0354749 121.760819,20.8791977 123.806134,20.6392121 C125.05889,20.4912965 125.505551,20.6029879 125.267933,20.9923984 C125.030316,21.3818089 125.642406,21.5599114 127.22151,21.5599114 C128.800614,21.5599114 129.608213,21.7953689 129.809737,22.3085456 C129.967647,22.7205962 130.4113,23.0632171 130.793293,23.0632171 C131.417415,23.0632171 131.703157,23.679029 131.366282,24.2978597 C131.297102,24.4231352 131.68511,24.8502793 132.225013,25.2442178 C133.07021,25.8630485 133.124351,26.146805 132.617534,27.2637188 C132.291185,27.9716007 131.471555,28.6975947 130.800812,28.8666411 L129.576631,29.1745471 L130.656437,30.2612741 C131.254993,30.858974 132.231029,31.3887534 132.829585,31.4445991 C133.42814,31.4959168 134.617732,31.897402 135.473456,32.3396395 C136.696133,32.9735636 136.989395,33.4188198 136.857051,34.4210236 C136.765313,35.1213588 136.365273,35.9016891 135.968241,36.1492214 C135.425331,36.499389 135.40578,36.609571 135.90207,36.6140991 C136.261504,36.6171178 136.416406,36.8540846 136.246465,37.1302944 C136.078027,37.4034855 136.290078,37.6313963 136.717188,37.6313963 C137.150313,37.6313963 137.49922,37.9709985 137.49922,38.3830491 C137.49922,38.7920811 137.190919,39.134702 136.808926,39.134702 C135.762206,39.134702 131.488098,41.1315628 131.488098,41.6220993 C131.488098,41.8620849 130.981281,41.9571735 130.360167,41.8469915 C129.739053,41.7322814 129.514971,41.7654869 129.857862,41.9315147 C130.316554,42.1518788 130.339112,42.4839342 129.942081,43.2355871 C129.644307,43.7880066 129.269833,44.1125154 129.111923,43.9540344 C128.954013,43.798572 128.57202,44.0174268 128.263719,44.4445709 C127.950906,44.8686963 127.293698,45.2777282 126.7944,45.351686 C125.732641,45.5071484 124.965648,46.5757633 125.299515,47.4406168 C125.501039,47.9719056 124.46635,48.4730075 122.714297,48.6978996 C122.442089,48.7341238 121.899178,49.025427 121.524705,49.3423891 C121.139705,49.6563324 120.51859,49.9204675 120.147125,49.9249955 C119.372612,49.9325422 115.457939,53.5836431 115.457939,54.3020904 C115.457939,54.55566 114.976688,54.6190524 114.390164,54.4349126 C113.710397,54.2145485 113.442701,54.2839783 113.656256,54.6190524 C113.916433,55.0461965 109.995743,56.0785872 108.953535,55.853695 C104.620775,54.9360145 102.883761,54.8741314 98.55852,55.4673032 C96.7884198,55.7148355 95.7025979,55.6408777 95.2243551,55.2424111 C94.6739246,54.7850802 94.108455,54.8228137 92.7173398,55.4039108 C91.7292719,55.8159615 90.9186653,56.3623437 90.9186653,56.6083666 C90.9186653,56.8513708 90.217844,57.080791 89.3576084,57.1064498 C88.5018845,57.1321086 86.2730923,57.9577193 84.405238,58.9372829 C80.3928104,61.0564006 79.6423601,61.1696013 80.1461694,59.5998845 C80.3446853,58.9765258 80.5537286,57.7494299 80.6199006,56.8694829 C80.7627719,54.8243231 82.4336141,52.646341 87.049109,48.5077224 C91.36683,44.6272014 97.4290848,41.4590903 97.4290848,43.0801247 C97.4290848,43.3155823 97.9975622,43.4046335 98.6953757,43.2718113 C99.8744398,43.0439005 99.8954946,42.9805081 99.0698489,42.3360186 C98.2216445,41.6764357 98.2291641,41.6070059 99.1841459,40.8553531 C99.7345764,40.4206623 100.799344,40.1519992 101.552802,40.2621812 C102.558916,40.4055688 103.007081,40.2033169 103.219132,39.5286405 C103.392082,38.976221 105.238881,37.792896 107.72785,36.6216458 C112.570435,34.3591405 114.516492,32.7049005 114.11946,31.1819734 C113.902897,30.3714562 114.280378,29.9397841 115.892568,29.1111547 C117.015988,28.536095 118.106321,28.1014042 118.319876,28.1497032 C118.536439,28.1980022 119.098901,28.06518 119.572632,27.8553813 C120.130582,27.6123771 121.081052,27.8780214 122.252597,28.5994874 C123.717404,29.5066026 124.155041,29.5941445 124.488909,29.0492717 C125.410805,27.5535127 121.44199,26.5331968 113.077252,26.1241648 C111.589886,26.0471883 111.65305,24.9891388 113.250201,23.0873666 C114.21571,21.9342285 114.351062,21.5463273 113.779577,21.5463273 C113.36149,21.5463273 112.87272,21.7817848 112.689243,22.073088 C112.472681,22.4232556 111.925258,22.3130736 111.074046,21.7591447 C109.940099,21.0150385 109.382149,20.981833 106.455543,21.5085937 C104.62679,21.8361212 102.461162,22.5440031 101.656571,23.0783105 C100.844461,23.6156366 99.7796936,24.0518368 99.280396,24.0578742 C98.7810984,24.0578742 98.5134027,24.285785 98.6818405,24.5619947 C99.199185,25.3981708 100.943719,25.121961 102.588995,23.9507108 C104.295931,22.7311616 110.123576,22.0232797 111.022913,22.9258669 C111.932777,23.8390194 109.079863,27.2259852 106.139722,28.7262722 C104.631302,29.4960372 103.264249,30.4574887 103.110851,30.8604833 C102.957452,31.2634779 102.515303,31.5940241 102.130302,31.5940241 C101.74831,31.5940241 101.424969,31.8747619 101.41745,32.2204014 C101.402411,32.9056432 97.4110379,35.109284 96.1853525,35.109284 C95.7702738,35.109284 94.8077724,35.8322594 94.0528104,36.7152251 C90.8615168,40.432737 90.5607351,40.6319703 88.362021,40.5474471 L86.2580532,40.4659426 L87.837157,39.0547068 C88.7034082,38.2728671 89.4162608,37.5136675 89.4162608,37.3597145 C89.4162608,36.8329538 87.2506327,38.2517363 85.6790484,39.8139064 C84.8082855,40.6757412 83.2487325,41.6417208 82.2125396,41.9511361 C80.908651,42.342056 80.4935723,42.3496027 80.8650377,41.981323 C81.7974609,41.048549 81.4485541,40.4402837 80.4875566,41.3111747 C78.9565779,42.6997703 78.7761089,42.2469674 79.9957786,40.0659666 C80.6304279,38.923394 82.0922269,37.2178363 83.2382051,36.2699689 C84.3871911,35.3236108 85.5587358,33.8821881 85.8414706,33.0671429 C86.1422522,32.2158734 86.9137572,31.3751693 87.6702232,31.0883941 C89.3591123,30.4439046 89.4147569,30.4514514 89.4147569,31.3570572 C89.4147569,32.40756 90.9096419,32.9086619 91.4600723,32.0422989 C91.7758931,31.5442157 91.9037253,31.5230849 91.9112449,31.9728692 C91.9142527,32.31549 92.1639015,32.5992465 92.4737066,32.5992465 C92.7895274,32.5992465 92.9143518,32.1539903 92.7639609,31.5668559 C92.5699567,30.8227497 92.8000547,30.4167365 93.6046457,30.1118492 C94.2107208,29.8794103 95.0108001,29.3269908 95.3822655,28.8847533 C95.7492191,28.4455344 96.5823844,28.0772547 97.2365845,28.0772547 C97.8937925,28.0772547 98.4231682,27.8750028 98.4231682,27.6274705 C98.4231682,27.3693728 97.6486554,27.3663541 96.5462906,27.6199238 C95.5176172,27.867456 93.7264623,27.9338671 92.5804841,27.7678394 C90.7818097,27.5172884 90.1652072,27.6984096 88.1635051,29.0839865 C86.8821752,29.9639335 85.6850641,30.5359746 85.4985794,30.3473067 C85.3075831,30.1586388 85.5647514,29.7103639 86.0610412,29.3405749 C86.6746358,28.8907906 86.7844211,28.5632632 86.4054362,28.3278057 C85.5136185,27.7753861 87.3889923,25.9913426 88.4913572,26.3460382 C89.8418669,26.7777103 90.562239,26.146805 89.7035073,25.2879887 C89.3064755,24.8895222 88.7710841,24.5650134 88.510908,24.5650134 C88.2462201,24.5650134 87.754442,24.2254112 87.4130548,23.8133606 C86.6280146,22.8624745 84.0458039,22.8519091 82.4050399,23.7907204 C81.7147459,24.184659 80.3852909,24.8593353 79.4498598,25.2940261 C78.5099171,25.7256982 76.7954615,26.930154 75.6314364,27.9625447 C74.4644035,28.9904073 72.5694789,30.5978576 71.4129733,31.5291223 C70.2564678,32.460387 69.0698841,33.7478566 68.7811336,34.3847994 C68.4923832,35.0217421 67.5614639,35.8322594 66.7177713,36.186955 C65.8725748,36.5371226 64.4964986,37.4246163 63.6558138,38.1551383 C62.8106173,38.8886791 61.4781544,39.8244718 60.6855947,40.2410504 C59.532097,40.8342223 59.4042648,41.048549 60.0584649,41.2945719 C60.5066296,41.471165 60.8765911,41.3896605 60.8765911,41.1209974 C60.8765911,40.8598811 61.1112008,40.634989 61.4059668,40.634989 C61.7007329,40.634989 62.7639961,40.0704947 63.7821421,39.3746875 C64.8032959,38.6818991 65.7101527,38.3468249 65.8018911,38.6230347 C66.2500558,39.9678593 71.1106878,38.3800304 73.0236592,36.2533661 C73.5049099,35.7190586 74.407255,35.3251201 75.0253613,35.3794564 C75.6464755,35.4353021 76.6044652,35.2360689 77.1518878,34.9372189 C78.3189207,34.3032948 81.4801362,33.1244979 82.0456057,33.1139325 C82.2591607,33.1109138 82.0892191,33.6376746 81.6681247,34.282164 C81.2500382,34.9236348 81.0214441,35.571143 81.171835,35.7235867 C81.319218,35.8715023 80.6424592,36.6925849 79.6739422,37.5514011 C78.6979056,38.4056893 77.9008342,39.3384633 77.9008342,39.6192011 C77.9008342,39.8954109 77.0601494,40.481036 76.031476,40.9157268 C74.0493248,41.7443561 71.894224,43.5133062 71.894224,44.3162767 C71.894224,44.5849398 72.9003388,44.6815377 74.258368,44.5260754 C76.2736053,44.2981646 76.4946798,44.3525009 75.7457335,44.9049205 C74.88249,45.5388446 70.9106679,49.1205157 67.3524207,52.4818227 C66.3643528,53.4100686 65.2634919,55.0763834 64.8965382,56.1782038 C64.5325924,57.287571 64.0708925,58.0875228 63.8723766,57.965266 C63.6663412,57.8399905 63.2302077,58.3924101 62.8993479,59.1953806 C62.010538,61.3552505 59.1576238,63.8275544 58.4086774,63.0789203 C57.9575049,62.6336641 57.8943407,62.6880004 58.1289504,63.3143778 C58.3605523,63.9075496 58.0221729,64.2803574 56.9092807,64.6667492 C56.0640842,64.9610711 55.378302,65.5542429 55.378302,65.9828963 C55.378302,66.4145684 55.1060945,66.760208 54.7767386,66.760208 C54.3330856,66.760208 54.3210544,66.9081236 54.7406448,67.327721 C55.4534974,68.0431496 55.0053327,69.1962877 53.4517953,70.6437477 C52.7765404,71.2701251 52.4050751,71.7863204 52.6216379,71.7863204 C52.8382007,71.7863204 52.4080829,72.3508147 51.666656,73.0436032 C50.1838024,74.3959745 49.3942504,74.6314321 49.5416335,73.6518684 Z M44.0704147,52.430505 C44.3095361,51.4237732 44.2584032,51.093227 43.9230317,51.4237732 C43.6508243,51.6969643 43.2628159,52.6025701 43.0718195,53.4281808 C42.8326981,54.4379313 42.8883427,54.7699867 43.2192025,54.4379313 C43.4944178,54.1617215 43.8794183,53.2591343 44.0704147,52.430505 Z M42.734944,51.3950957 C42.801116,50.6540082 42.6356861,50.2419576 42.3424239,50.4185507 C41.7619153,50.7838117 41.6671691,52.6810559 42.2401582,52.6810559 C42.4552171,52.6765279 42.6792994,52.1014682 42.734944,51.3950957 Z M48.1054009,46.6557584 C49.1701681,45.4769615 48.2963973,45.2807469 47.1398917,46.438413 C46.2555936,47.3228881 46.1563357,47.6579622 46.7759459,47.6579622 C47.0120595,47.6579622 47.6061033,47.2051593 48.1054009,46.6557584 Z M51.1132177,42.130748 C51.5057378,41.4938052 50.845522,41.4938052 49.860462,42.130748 C49.2107736,42.5473266 49.2258127,42.6212844 49.9552083,42.6288312 C50.4229238,42.6318498 50.9402683,42.4099764 51.1132177,42.130748 Z M55.985881,39.0094265 C56.8491244,38.201928 57.3002969,37.3914107 57.0837341,37.0457712 C56.8416048,36.6548513 56.9333433,36.5854216 57.3589493,36.8510659 C57.7890671,37.1121823 57.9244189,37.0170937 57.7695163,36.5491973 C57.4717425,35.6571756 56.7528742,35.7975445 56.116721,36.8767248 C55.8445136,37.3446211 55.000821,38.3619183 54.2398433,39.1362113 C53.4833774,39.913523 52.8622632,40.8206382 52.8622632,41.1511843 C52.8637671,41.8032205 53.3600569,41.466637 55.985881,39.0094265 Z M100.184245,28.069708 C100.011296,27.7934982 99.6488536,27.5686061 99.3691266,27.5686061 C99.0969192,27.5686061 99.0096925,27.7934982 99.1781303,28.069708 C99.346568,28.3459178 99.7135217,28.5738286 99.9902408,28.5738286 C100.26696,28.5738286 100.354187,28.3459178 100.184245,28.069708 Z M120.881032,22.0519572 C121.601405,22.0595039 121.611932,22.125915 120.962243,22.5455124 C120.308043,22.9696378 120.315563,23.0360489 121.031423,23.0390676 C121.472068,23.0466143 122.106718,22.7296523 122.43457,22.3357137 C122.897774,21.7712194 122.824082,21.5659488 122.060097,21.3184165 C120.742673,20.8988191 119.453823,21.4768975 119.500444,22.4715546 C119.526011,22.9983153 119.632788,23.0647264 119.790699,22.6707879 C119.935074,22.3206203 120.42234,22.0474292 120.881032,22.0519572 Z M106.070542,17.5224187 C106.493141,17.5224187 106.966872,17.1828165 107.124782,16.7707659 C107.514295,15.7610154 107.018005,15.8244078 105.038861,17.0288635 C104.062825,17.6265634 103.533449,18.2710529 103.739484,18.6091457 C103.986125,19.0030842 104.279388,18.9261078 104.694466,18.351048 C105.031342,17.8952264 105.647944,17.5224187 106.070542,17.5224187 Z M111.698168,13.0049549 C111.871117,12.7287452 111.786898,12.5008343 111.507171,12.5008343 C111.231956,12.5008343 110.86801,12.7287452 110.695061,13.0049549 C110.522111,13.278146 110.61385,13.5060568 110.889065,13.5060568 C111.16428,13.5060568 111.52973,13.278146 111.698168,13.0049549 Z M115.957236,8.98406502 C115.957236,8.70785524 115.618857,8.47994444 115.20829,8.47994444 C114.797723,8.47994444 114.459344,8.70785524 114.459344,8.98406502 C114.459344,9.25725611 114.797723,9.48516692 115.20829,9.48516692 C115.618857,9.48516692 115.957236,9.25725611 115.957236,8.98406502 Z M103.944016,67.9842852 C103.944016,67.5601598 103.602629,67.0847168 103.192062,66.9262357 C102.219033,66.5504093 102.219033,65.7429108 103.192062,65.7429108 C103.602629,65.7429108 103.944016,65.4002899 103.944016,64.9912579 C103.944016,64.5746792 103.704895,64.2365864 103.408625,64.2365864 C103.11837,64.2365864 103.016105,64.0222597 103.177023,63.7581247 C103.337941,63.4939896 103.84175,63.4185225 104.292923,63.5920969 C104.935092,63.8396292 105.03435,63.706807 104.763646,62.9838317 C104.371126,61.9635158 105.135111,61.2450685 106.628492,61.2329937 C107.318786,61.225447 107.491736,61.4835447 107.30074,62.2276508 C107.099216,63.0019438 107.2857,63.2374013 108.118866,63.24042 C108.709902,63.24042 110.061915,63.4758775 111.104124,63.7717087 C112.856177,64.2622452 112.999048,64.4343103 112.859185,65.8983731 C112.657661,67.9797572 111.101116,68.7465035 107.069138,68.7585782 C104.590697,68.7540502 103.944016,68.5925505 103.944016,67.9842852 Z M172.875658,63.8969842 C172.185364,63.2072144 172.579388,62.2246321 173.543393,62.2246321 C174.211128,62.2246321 174.546502,62.5597063 174.546502,63.2313639 C174.548004,64.1958341 173.565952,64.586754 172.875658,63.8969842 Z M145.569193,49.7982107 C145.25638,49.2080576 145.003723,48.3764095 145.003723,47.9417187 C145.003723,47.5145746 144.776633,47.1568603 144.501418,47.1568603 C143.91339,47.1568603 143.84421,45.1705649 144.409679,44.2785431 C144.63677,43.9208288 145.474446,43.7472544 146.403862,43.8664925 C147.285152,43.9812025 148.008532,43.8695112 148.008532,43.631035 C148.008532,43.1631386 151.375783,43.3367131 151.867561,43.8302682 C152.359339,44.3162767 150.894532,45.7139284 150.18168,45.4362093 C149.259784,45.083023 149.333475,46.1365444 150.309512,47.212706 C151.241935,48.2481154 150.885509,49.1356091 149.575605,49.0329738 C148.951483,48.9846748 148.7274,48.6722408 148.885311,48.0594475 C149.289862,46.5184082 148.312322,47.0753558 147.199429,49.0178803 C146.17978,50.7973958 146.121127,50.8275827 145.569193,49.7982107 Z M78.2677878,43.0695593 C78.6061672,42.7269385 79.0062069,42.5760042 79.1596055,42.7299571 C79.3130042,42.8839101 79.0423007,43.1646479 78.5430031,43.3533158 C77.8346622,43.631035 77.7805215,43.5721706 78.2677878,43.0695593 Z M182.047995,42.3707335 C181.127603,41.2613663 181.650963,41.1330722 182.684148,42.2152712 C183.163895,42.7239198 183.362411,43.1359704 183.120282,43.1359704 C182.875145,43.1359704 182.39239,42.7933496 182.047995,42.3707335 Z M159.680365,42.3148878 C159.26679,42.1458414 159.33597,41.8107672 159.930014,41.2100487 C160.522554,40.6093301 160.94816,40.5021668 161.346696,40.8644091 C161.662517,41.1481656 161.80238,41.5798377 161.654997,41.822842 C161.504606,42.0658462 161.69861,42.1579161 162.080603,42.0250939 C162.521248,41.8741596 162.719764,41.2175954 162.620506,40.2048262 C162.465604,38.6713337 162.503201,38.6381281 163.828145,39.143758 C164.816212,39.5226031 165.297463,39.5090191 165.551624,39.0879123 C165.80428,38.6713337 166.002796,38.6637869 166.249437,39.0652722 C166.440434,39.3716688 166.341176,39.6222198 166.03137,39.6222198 C165.721565,39.6222198 165.610276,39.8501306 165.781722,40.1263404 C165.954671,40.3995315 165.796761,40.630461 165.437327,40.634989 C164.960588,40.6425357 164.986154,40.7753579 165.530569,41.1285442 C166.14266,41.5270107 166.076488,41.6190807 165.19219,41.6266274 C164.59965,41.6296461 163.998086,41.3504176 163.858223,41.0032687 C163.697305,40.6123488 163.590527,40.683288 163.564961,41.202502 C163.51082,42.4099764 161.397829,43.015223 159.680365,42.3148878 Z M68.0983592,37.1710467 C68.2487501,36.9280424 68.8803916,36.600515 69.5045136,36.442034 C70.5993589,36.1688429 70.6053745,36.1884643 69.6699435,36.8842715 C68.5901373,37.6902607 67.675761,37.8593071 68.0983592,37.1710467 Z M80.9041393,32.0860699 C81.8876954,31.4491271 82.5524229,31.4491271 82.156895,32.0860699 C81.9884572,32.359261 81.4696088,32.5871718 81.0033972,32.5841531 C80.2694899,32.575097 80.2589626,32.5086859 80.9041393,32.0860699 Z M83.4081468,29.5760324 C83.4081468,29.3028413 83.749534,29.0719118 84.160101,29.0719118 C84.570668,29.0719118 84.9090473,29.3043506 84.9090473,29.5760324 C84.9090473,29.8477141 84.570668,30.080153 84.160101,30.080153 C83.7465262,30.0816623 83.4081468,29.8492235 83.4081468,29.5760324 Z M128.111824,20.7327914 C128.280262,20.5667637 128.71038,20.5486515 129.074325,20.6920391 C129.466845,20.8505202 129.354052,20.9727769 128.769032,20.9939077 C128.239656,21.0195666 127.946394,20.8988191 128.111824,20.7327914 Z M124.7551,20.0475496 C124.222717,19.8588818 123.998635,19.5902187 124.255803,19.4498498 C124.92053,19.0815701 129.256298,18.9155424 128.904384,19.2687286 C128.290789,19.8845406 125.680004,20.3750771 124.7551,20.0475496 Z M128.099793,17.6929745 C127.032018,17.2613024 127.409499,16.4402197 128.602098,16.6092662 C129.218701,16.6983174 129.669873,17.000186 129.600693,17.2718678 C129.451806,17.8831517 128.93747,18.0235206 128.099793,17.6929745 Z M120.966755,17.356391 C120.966755,17.19791 121.47658,16.5126682 122.105214,15.8425199 C122.927852,14.9580448 123.962541,14.5309008 125.801821,14.3346862 C127.212487,14.1837519 128.952509,13.9105608 129.671377,13.7309489 C130.644406,13.4834167 130.978273,13.5951081 130.978273,14.1399809 C130.978273,15.1421847 129.663857,16.1957062 128.963036,15.7610154 C128.657743,15.5693288 127.350846,15.5768755 126.066509,15.7791275 C124.201662,16.0704307 123.926447,16.2243837 124.726526,16.5488924 C125.633383,16.9171721 125.610824,16.9549057 124.476877,16.9941486 C123.786583,17.0167888 122.718808,17.1707418 122.097694,17.3367695 C121.472068,17.5043066 120.966755,17.5118533 120.966755,17.356391 Z M168.903835,8.14788896 C169.242215,8.01204809 169.921981,8.00450137 170.40624,8.12977685 C170.893506,8.25807101 170.615283,8.36976239 169.789638,8.3803278 C168.962488,8.3908932 168.562448,8.28825787 168.903835,8.14788896 Z" id="Shape" stroke="#979797" fill="#508E9D"></path>
            </g>
            <text id="title" font-family="Rubik-Regular, Rubik" font-size="60" font-weight="normal" fill="#000000">
                <tspan x="392" y="145">Map</tspan>
            </text>
            <circle id="Dot_2" fill="#9B242C" cx="407" cy="342" r="15"></circle>
            <circle id="Dot_2" fill="#9B242C" cx="451" cy="372" r="15"></circle>
            <circle id="Dot_2" fill="#9B242C" cx="494" cy="254" r="15"></circle>
        </g>
    </g>
</svg>