<?xml version="1.0" encoding="UTF-8"?>
<svg width="525px" height="436px" viewBox="0 0 525 436" version="1.1" xmlns="http://www.w3.org/2000/svg" xmlns:xlink="http://www.w3.org/1999/xlink" style="background: #FFFFFF;">
    <title>export area</title>
    <defs>
        <rect id="path-1" x="208" y="72" width="485" height="395" rx="9"></rect>
        <filter x="-8.5%" y="-7.8%" width="116.9%" height="120.8%" filterUnits="objectBoundingBox" id="filter-2">
            <feMorphology radius="6" operator="dilate" in="SourceAlpha" result="shadowSpreadOuter1"></feMorphology>
            <feOffset dx="0" dy="10" in="shadowSpreadOuter1" result="shadowOffsetOuter1"></feOffset>
            <feGaussianBlur stdDeviation="10" in="shadowOffsetOuter1" result="shadowBlurOuter1"></feGaussianBlur>
            <feComposite in="shadowBlurOuter1" in2="SourceAlpha" operator="out" result="shadowBlurOuter1"></feComposite>
            <feColorMatrix values="0 0 0 0 0   0 0 0 0 0   0 0 0 0 0  0 0 0 0.5 0" type="matrix" in="shadowBlurOuter1"></feColorMatrix>
        </filter>
        <filter x="-84.7%" y="-142.9%" width="269.4%" height="385.7%" filterUnits="objectBoundingBox" id="filter-3">
            <feGaussianBlur stdDeviation="50" in="SourceGraphic"></feGaussianBlur>
        </filter>
        <radialGradient cx="50%" cy="0%" fx="50%" fy="0%" r="14350.3484%" gradientTransform="translate(0.500000,0.000000),scale(0.003484,1.000000),rotate(0.399267),scale(1.000000,109.548557),translate(-0.500000,-0.000000)" id="radialGradient-4">
            <stop stop-color="#C8C8C8" offset="0%"></stop>
            <stop stop-color="#B20000" offset="100%"></stop>
        </radialGradient>
    </defs>
    <g id="viz-icons-for-EDA" stroke="none" stroke-width="1" fill="none" fill-rule="evenodd">
        <g id="Time-series" transform="translate(-190.000000, -54.000000)">
            <text id="title" font-family="Rubik-Regular, Rubik" font-size="60" font-weight="normal" fill="#000000">
                <tspan x="289" y="143">Time series</tspan>
            </text>
            <g id="Line-chart" transform="translate(203.000000, 223.000000)">
                <path d="M5,57.375 C5,57.375 14.9378882,3 24.8757764,3 C34.8136646,3 34.8136646,5.5 44.7515528,5.5 C54.689441,5.5 54.689441,30.5 64.6273292,30.5 C74.5652174,30.5 74.5652174,129.25 84.5031056,129.25 C94.4409938,129.25 94.4409938,20.5 104.378882,20.5 C114.31677,20.5 114.31677,69.875 125.248447,69.875 C135.186335,69.875 135.186335,84.875 145.124224,84.875 C155.062112,84.875 155.062112,171.125 165,171.125 C174.937888,171.125 174.937888,74.875 184.875776,74.875 C194.813665,74.875 194.813665,45.5 204.751553,45.5 C214.689441,45.5 214.689441,3 224.627329,3 C234.565217,3 234.565217,131.75 245.496894,131.75 C255.434783,131.75 255.434783,54.875 265.372671,54.875 C275.310559,54.875 275.310559,129.25 285.248447,129.25 C295.186335,129.25 295.186335,96.75 305.124224,96.75 C315.062112,96.75 315.062112,171.125 325,171.125 C334.937888,171.125 334.937888,111.75 344.875776,111.75 C354.813665,111.75 354.813665,188.625 365.745342,188.625 C375.68323,188.625 375.68323,114.25 385.621118,114.25 C395.559006,114.25 395.559006,173.625 405.496894,173.625 C415.434783,173.625 415.434783,195.5 425.372671,195.5 C435.310559,195.5 435.310559,238 445.248447,238 C455.186335,238 455.186335,119.25 465.124224,119.25 C475.062112,119.25 485,30.5 485,30.5" id="Line_1" stroke="#508E9D" stroke-width="7"></path>
                <ellipse id="Dot_11" fill="#508E9D" cx="5" cy="58" rx="5" ry="3"></ellipse>
                <ellipse id="Dot_12" fill="#508E9D" cx="25" cy="3" rx="5" ry="3"></ellipse>
                <ellipse id="Dot_13" fill="#508E9D" cx="45" cy="5" rx="5" ry="3"></ellipse>
                <ellipse id="Dot_14" fill="#508E9D" cx="65" cy="31" rx="5" ry="3"></ellipse>
                <ellipse id="Dot_15" fill="#508E9D" cx="84" cy="129" rx="5" ry="3"></ellipse>
                <ellipse id="Dot_16" fill="#508E9D" cx="104" cy="20" rx="5" ry="3"></ellipse>
                <ellipse id="Dot_17" fill="#508E9D" cx="125" cy="70" rx="5" ry="3"></ellipse>
                <ellipse id="Dot_18" fill="#508E9D" cx="145" cy="85" rx="5" ry="3"></ellipse>
                <ellipse id="Dot_19" fill="#508E9D" cx="165" cy="171" rx="5" ry="3"></ellipse>
                <ellipse id="Dot_110" fill="#508E9D" cx="185" cy="75" rx="5" ry="3"></ellipse>
                <ellipse id="Dot_111" fill="#508E9D" cx="205" cy="46" rx="5" ry="3"></ellipse>
                <ellipse id="Dot_112" fill="#508E9D" cx="225" cy="3" rx="5" ry="3"></ellipse>
                <ellipse id="Dot_113" fill="#508E9D" cx="245" cy="131" rx="5" ry="3"></ellipse>
                <ellipse id="Dot_114" fill="#508E9D" cx="265" cy="55" rx="5" ry="3"></ellipse>
                <ellipse id="Dot_115" fill="#508E9D" cx="285" cy="129" rx="5" ry="3"></ellipse>
                <ellipse id="Dot_116" fill="#508E9D" cx="305" cy="97" rx="5" ry="3"></ellipse>
                <ellipse id="Dot_117" fill="#508E9D" cx="325" cy="171" rx="5" ry="3"></ellipse>
                <ellipse id="Dot_118" fill="#508E9D" cx="345" cy="112" rx="5" ry="3"></ellipse>
                <ellipse id="Dot_119" fill="#508E9D" cx="366" cy="188" rx="5" ry="3"></ellipse>
                <ellipse id="Dot_120" fill="#508E9D" cx="386" cy="114" rx="5" ry="3"></ellipse>
                <ellipse id="Dot_121" fill="#508E9D" cx="406" cy="173" rx="5" ry="3"></ellipse>
                <ellipse id="Dot_122" fill="#508E9D" cx="425" cy="195" rx="5" ry="3"></ellipse>
                <ellipse id="Dot_123" fill="#508E9D" cx="445" cy="238" rx="5" ry="3"></ellipse>
                <ellipse id="Dot_124" fill="#508E9D" cx="465" cy="119" rx="5" ry="3"></ellipse>
                <ellipse id="Dot_125" fill="#508E9D" cx="485" cy="31" rx="5" ry="3"></ellipse>
            </g>
            <path d="M182.5,493 C209.561953,493 355,453.972102 355,430.5 C355,407.027898 333.061953,388 306,388 C278.938047,388 257,407.027898 257,430.5 C257,453.972102 155.438047,493 182.5,493 Z" id="Oval" fill="#508E9D" opacity="0.689861479" filter="url(#filter-3)"></path>
            <path id="Line" d="M569,159 L598,173.5 L569,188 L569,176 L309,176 L309,171 L569,171 L569,159 Z" fill="url(#radialGradient-4)" fill-rule="nonzero"></path>
        </g>
    </g>
</svg>